<?xml version="1.0" encoding="UTF-8"?>
<svg width="20px" height="22px" viewBox="0 0 20 22" version="1.1" xmlns="http://www.w3.org/2000/svg" xmlns:xlink="http://www.w3.org/1999/xlink">
    <!-- Generator: Sketch 47.1 (45422) - http://www.bohemiancoding.com/sketch -->
    <title>icon-logout</title>
    <desc>Created with Sketch.</desc>
    <defs></defs>
    <g id="-prototype-v0.1" stroke="none" stroke-width="1" fill="none" fill-rule="evenodd">
        <g id="user-menu" transform="translate(-62.000000, -239.000000)">
            <g id="Group-17-Copy-2" transform="translate(48.000000, 226.000000)">
                <g id="Group-11">
                    <g id="icon-logout">
                        <g id="Group-7">
                            <rect id="Rectangle-5" x="0" y="0" width="48" height="48"></rect>
                            <g id="ic_exit_to_app_white_24px-(1)" transform="translate(12.000000, 12.000000)">
                                <polygon id="Shape" points="0 0 24 0 24 24 0 24"></polygon>
                            </g>
                        </g>
                        <g id="gorup" transform="translate(14.000000, 13.000000)" fill="#FFFFFF">
                            <path d="M10,14.8994949 L11,15.8994949 L15.9497475,10.9497475 L11,6 L10,7 L13.9497475,10.9497475 L10,14.8994949 Z" id="Combined-Shape"></path>
                            <path d="M20,6 L19,6 L19,16 L20,16 L20,17.9904421 C20,20.2048598 18.2075324,22 16.00077,22 L3.99922997,22 C1.79051625,22 0,20.1996477 0,17.9904421 L0,4.00955791 C0,1.79514022 1.79246765,0 3.99922997,0 L16.00077,0 C18.2094838,0 20,1.80035233 20,4.00955791 L20,6 Z M1,3.99420208 L1,18.0057979 C1,19.656688 2.33980569,21 3.99253976,21 L16.0074602,21 C17.6470745,21 19,19.6594501 19,18.0057979 L19,3.99420208 C19,2.34331197 17.6601943,1 16.0074602,1 L3.99253976,1 C2.35292554,1 1,2.34054993 1,3.99420208 Z" id="Combined-Shape"></path>
                            <circle id="Oval-4" cx="7" cy="11" r="2"></circle>
                        </g>
                    </g>
                </g>
            </g>
        </g>
    </g>
</svg>