<?xml version="1.0" encoding="UTF-8" standalone="no"?>
<svg width="20px" height="22px" viewBox="0 0 20 22" version="1.1" xmlns="http://www.w3.org/2000/svg" xmlns:xlink="http://www.w3.org/1999/xlink">
    <!-- Generator: Sketch 46.2 (44496) - http://www.bohemiancoding.com/sketch -->
    <title>icon-musei-06c</title>
    <desc>Created with Sketch.</desc>
    <defs></defs>
    <g id="-prototype-v0.1" stroke="none" stroke-width="1" fill="none" fill-rule="evenodd">
        <g id="negozi-fisici-categoria" transform="translate(-30.000000, -259.000000)">
            <g id="Group-18" transform="translate(10.000000, 8.000000)">
                <g id="Group-9" transform="translate(18.000000, 242.000000)">
                    <g id="icon-musei-06c" transform="translate(0.000000, 8.000000)">
                        <rect id="Rectangle-7" x="0" y="0" width="24" height="24"></rect>
                        <path d="M12,1.33333333 L22,7.42857143 L2,7.42857143 L12,1.33333333 Z M2,19.6190476 L22,19.6190476 L22,22.6666667 L2,22.6666667 L2,19.6190476 Z M2,7.42857143 L22,7.42857143 L22,9.46031746 L2,9.46031746 L2,7.42857143 Z M11,10.4761905 L13,10.4761905 L13,18.6031746 L11,18.6031746 L11,10.4761905 Z M7,10.4761905 L9,10.4761905 L9,18.6031746 L7,18.6031746 L7,10.4761905 Z M19,10.4761905 L21,10.4761905 L21,18.6031746 L19,18.6031746 L19,10.4761905 Z M3,10.4761905 L5,10.4761905 L5,18.6031746 L3,18.6031746 L3,10.4761905 Z M15,10.4761905 L17,10.4761905 L17,18.6031746 L15,18.6031746 L15,10.4761905 Z" id="Combined-Shape" fill="#0271D2"></path>
                    </g>
                </g>
            </g>
        </g>
    </g>
</svg>