<?xml version="1.0" encoding="UTF-8" standalone="no"?>
<svg width="21px" height="20px" viewBox="0 0 21 20" version="1.1" xmlns="http://www.w3.org/2000/svg" xmlns:xlink="http://www.w3.org/1999/xlink">
    <!-- Generator: Sketch 46.2 (44496) - http://www.bohemiancoding.com/sketch -->
    <title>icon-teatro-06c</title>
    <desc>Created with Sketch.</desc>
    <defs></defs>
    <g id="-prototype-v0.1" stroke="none" stroke-width="1" fill="none" fill-rule="evenodd">
        <g id="negozi-fisici-categoria" transform="translate(-30.000000, -308.000000)">
            <g id="icon-teatro-06c" transform="translate(28.000000, 306.000000)">
                <rect id="Rectangle-4" x="0" y="0" width="24" height="24"></rect>
                <g id="Theatre-Mask" transform="translate(2.000000, 2.000000)" fill="#1168C9">
                    <path d="M11.8958333,0.09375 C11.7614343,0.1063856 11.6262823,0.1458156 11.4895833,0.1875 L11.4895833,0.125 L11.3645833,0.15625 L1.77083333,2.625 C1.73908747,2.63386543 1.70779928,2.64429483 1.67708333,2.65625 C0.771541833,3.0184666 0.164010933,3.9971381 0.364583333,5 C0.363932198,5.02082825 0.363932198,5.04167175 0.364583333,5.0625 L2.17708333,11.84375 C2.17692058,11.854166 2.17692058,11.864584 2.17708333,11.875 C2.74752053,13.814486 4.28662273,14.997305 5.83333333,15.6875 C6.30728253,16.453736 6.90674013,17.131893 7.48958333,17.6875 C8.93735733,19.067621 10.4583333,19.875 10.4583333,19.875 C10.6474584,19.9837151 10.8669428,20.027612 11.0833333,20 C11.0833333,20 11.5225843,19.921965 12.1770833,19.75 C12.8315823,19.578035 13.7013293,19.312141 14.6145833,18.90625 C15.2995233,18.601832 16.0410503,18.217335 16.7083333,17.71875 C16.9307613,17.552555 17.1286703,17.37906 17.3333333,17.1875 C18.1519863,16.42126 18.8024503,15.435401 19.0208333,14.1875 L20.3020833,7.1875 C20.3127289,7.17731479 20.3231481,7.16689558 20.3333333,7.15625 C20.5192353,6.040837 19.7675883,5.018101 18.7395833,4.8125 C18.7291673,4.81233725 18.7187494,4.81233725 18.7083333,4.8125 L14.6145833,4.0625 L13.9270833,1.59375 C13.9219833,1.568368 13.9018133,1.556034 13.8958333,1.53125 C13.7659463,0.9927535 13.4124363,0.6021604 12.9895833,0.34375 C12.6837563,0.1568557 12.2990303,0.0558433 11.8958333,0.09375 Z M7.20833333,3.28125 L7.20833333,3.3125 C6.72915293,3.6142257 6.34914543,4.0775639 6.17708333,4.59375 C6.16399066,4.63470164 6.15355234,4.67645494 6.14583333,4.71875 L5.80208333,6.78125 C5.71087603,6.7809779 5.61093233,6.7899752 5.52083333,6.8125 C4.72083333,7.0125 4.33333333,8.1875 4.33333333,8.1875 C4.33333333,8.1875 4.85560563,8.648644 5.45833333,8.78125 L4.95833333,11.71875 C4.90176613,12.041991 4.89120743,12.347269 4.89583333,12.65625 C4.55257283,12.283004 4.27340393,11.858551 4.11458333,11.34375 L2.30208333,4.59375 C2.30265573,4.59661 2.30137483,4.569033 2.39583333,4.53125 L7.20833333,3.28125 Z M8.17708333,5 C8.20287873,4.975069 8.22853983,4.9929511 8.27083333,5 L13.3333333,5.90625 L11.8333333,14 L8.83333333,13.5 L8.92708333,13.6875 C9.32025433,14.867012 10.2856483,15.780035 11.4583333,16 L11.1145833,17.90625 C10.8664493,17.764618 9.95383233,17.2571 8.86458333,16.21875 C7.79076083,15.195106 6.92271743,13.931721 6.89583333,12.625 C6.89199273,12.438326 6.89420943,12.250351 6.92708333,12.0625 L8.08333333,5.21875 C8.12535823,5.0926753 8.15128793,5.024931 8.17708333,5 Z M9.92708333,8.46875 C9.21888033,8.507031 8.52083333,9.1875 8.52083333,9.1875 C8.52083333,9.1875 9.03333333,10.4 9.83333333,10.5 C10.6333333,10.7 11.5208333,9.8125 11.5208333,9.8125 C11.5208333,9.8125 11.0395833,8.6 10.2395833,8.5 C10.1395833,8.475 10.0282553,8.463281 9.92708333,8.46875 Z M16.0208333,9.5625 C16.1220053,9.557031 16.2333333,9.56875 16.3333333,9.59375 C17.0666663,9.685417 17.5394673,10.675058 17.6145833,10.84375 L17.6145833,10.875 L17.5833333,10.9375 C17.4494573,11.051095 16.6587903,11.685213 15.9270833,11.59375 C15.1270833,11.49375 14.6458333,10.3125 14.6458333,10.3125 C14.6458333,10.3125 15.3126303,9.600781 16.0208333,9.5625 Z" id="Shape"></path>
                </g>
            </g>
        </g>
    </g>
</svg>