<?xml version="1.0" encoding="UTF-8" standalone="no"?>
<svg width="120px" height="120px" viewBox="0 0 120 120" version="1.1" xmlns="http://www.w3.org/2000/svg" xmlns:xlink="http://www.w3.org/1999/xlink">
    <!-- Generator: Sketch 46.2 (44496) - http://www.bohemiancoding.com/sketch -->
    <title>icon</title>
    <desc>Created with Sketch.</desc>
    <defs></defs>
    <g id="-prototype-v0.1" stroke="none" stroke-width="1" fill="none" fill-rule="evenodd">
        <g id="icon">
            <g id="app-icon">
                <rect id="Rectangle-Copy-4"  x="0" y="0" width="120" height="120" rx="8"></rect>
                <path d="M86.3494564,29.2053722 C99.3418934,39.6646724 90.0250056,47.7846367 81.2465762,49.487596 C79.5928684,49.8088215 75.2721816,50.2522483 71.503695,47.6445696 C67.73557,45.0376054 60.5341842,42.8872888 55.7343451,39.8265357 C50.9345061,36.765068 49.3057504,34.2853077 48.5109002,32.2396841 C47.71605,30.1940605 44.8049746,32.2368256 44.6433286,35.4905283 C44.4820441,38.7435165 46.8741887,43.1874327 50.0127258,44.9071858 C53.1512629,46.6269388 55.8811646,49.2528406 54.0336262,50.6106344 C52.1860877,51.9684283 49.1791819,53.7667904 47.1725287,54.7154595 C45.1662373,55.6641286 42.3433982,57.2041527 42.9917905,60.3381552 C43.6394596,63.472515 44.6574319,64.8699707 46.2684681,65.1036542 C44.980724,66.4371506 45.5578764,71.1001005 49.0536982,72.0269734 C47.9507442,74.3230742 50.7822623,77.943024 54.475531,77.6682494 C54.620904,80.2423406 56.230132,82.9175518 60.2615194,82.0453479 C64.2943534,81.173144 73.3964364,78.2992662 78.3524971,74.8075922 C91.4328089,65.59246 97.9962895,78.005554 91.0100701,86.2816646 C86.9096124,91.1393506 81.3948422,94.9068712 75.001325,97.3319624 C54.1301798,105.24933 30.7135614,94.9493916 22.7003291,74.32629 C14.6870967,53.7024739 25.1120014,30.5656672 45.9831465,22.6483 C60.1338661,17.2803694 75.3799456,20.3743527 86.3494564,29.2053722 Z" id="Fill-1" fill="#0066CC"></path>
            </g>
        </g>
    </g>
</svg>
