<?xml version="1.0" encoding="UTF-8" standalone="no"?>
<svg width="24px" height="22px" viewBox="0 0 24 22" version="1.1" xmlns="http://www.w3.org/2000/svg" xmlns:xlink="http://www.w3.org/1999/xlink">
    <!-- Generator: Sketch 46.2 (44496) - http://www.bohemiancoding.com/sketch -->
    <title>icon-wallet-white</title>
    <desc>Created with Sketch.</desc>
    <defs></defs>
    <g id="Symbols" stroke="none" stroke-width="1" fill="none" fill-rule="evenodd">
        <g id="navigation-wallet" transform="translate(-28.000000, -15.000000)">
            <g id="Group-7">
                <g>
                    <g id="Group-3" transform="translate(3.000000, 15.000000)">
                        <g id="icon-wallet-white" transform="translate(25.000000, 0.000000)">
                            <path d="M22.5,8.5 L22.5,7.00010618 C22.5,6.16832499 21.830168,5.5 20.9991358,5.5 L2.00086422,5.5 C1.17549675,5.5 0.5,6.17388922 0.5,7.00010618 L0.5,19.9998938 C0.5,20.831675 1.169832,21.5 2.00086422,21.5 L20.9991358,21.5 C21.8245032,21.5 22.5,20.8261108 22.5,19.9998938 L22.5,17.5 L16.999615,17.5 C15.6167759,17.5 14.5,16.3871071 14.5,15.0018986 L14.5,10.9981014 C14.5,9.61594828 15.613775,8.5 16.999615,8.5 L22.5,8.5 Z M16.5,10.990778 L16.5,15.009222 C16.5,15.2753052 16.7249539,15.5 16.9970301,15.5 L23.0029699,15.5 C23.2743295,15.5 23.5,15.2767732 23.5,15.009222 L23.5,10.990778 C23.5,10.7246948 23.2750461,10.5 23.0029699,10.5 L16.9970301,10.5 C16.7256705,10.5 16.5,10.7232268 16.5,10.990778 Z" id="Combined-Shape" stroke="#FFFFFF"></path>
                            <rect id="Rectangle-5" fill="#FFFFFF" x="16" y="10" width="8" height="6" rx="1"></rect>
                            <path d="M9.88095377,4 L17.5019142,1.95796982 C18.5641279,1.67335051 19.6555863,2.30235139 19.9428878,3.3745752 L20.1104698,4 L9.88095377,4 Z" id="Combined-Shape" fill="#FFFFFF"></path>
                            <path d="M15.0472984,1.76921987 L14.9400311,1.48977891 C14.5422255,0.453460043 13.3909977,-0.05800663 12.3643538,0.336085064 L2.81952905,4 L6.72191362,4 L15.0472984,1.76921987 Z" id="Combined-Shape" fill="#FFFFFF"></path>
                        </g>
                    </g>
                </g>
            </g>
        </g>
    </g>
</svg>