<?xml version="1.0" encoding="UTF-8" standalone="no"?>
<svg width="20px" height="21px" viewBox="0 0 20 21" version="1.1" xmlns="http://www.w3.org/2000/svg" xmlns:xlink="http://www.w3.org/1999/xlink">
    <!-- Generator: Sketch 46.2 (44496) - http://www.bohemiancoding.com/sketch -->
    <title>icon-eventi-06c</title>
    <desc>Created with Sketch.</desc>
    <defs></defs>
    <g id="-prototype-v0.1" stroke="none" stroke-width="1" fill="none" fill-rule="evenodd">
        <g id="negozi-fisici-categoria" transform="translate(-30.000000, -163.000000)">
            <g id="Group-18" transform="translate(10.000000, 8.000000)">
                <g id="Group-7" transform="translate(18.000000, 153.000000)">
                    <g id="icon-eventi-06c">
                        <rect id="Rectangle-5" x="0" y="0" width="24" height="24"></rect>
                        <g id="Circus-Tent" transform="translate(2.000000, 2.000000)" fill="#0271D2">
                            <path d="M10,0 L10,2 L14,2 L13,1 L14,0 L10,0 Z M10,3 L17,10 L17,12 C17,12 17.244,13 18.5,13 C19.756,13 20,12 20,12 L20,10 L10,3 Z M10,3 L11,10 L11,12 C11,12 11.496,13 13,13 C14.504,13 15,12 15,12 L15,10 L10,3 Z M10,3 L5,10 L5,12 C5,12 5.496,13 7,13 C8.504,13 9,12 9,12 L9,10 L10,3 Z M10,3 L0,10 L0,12 C0,12 0.244,13 1.5,13 C2.756,13 3,12 3,12 L3,10 L10,3 Z M4,13 C4,13 3.008,14 1.5,14 C1.285,14 1.08925,13.9745 0.90625,13.9375 L0,21 L7,21 L8,17 L12,17 L13,21 L20,21 L19.09375,13.9375 C18.91075,13.9745 18.715,14 18.5,14 C16.763,14 16,13 16,13 C16,13 14.852,14 13,14 C11.403,14 10,13 10,13 C10,13 8.589,14 7,14 C5.174,14 4,13 4,13 Z" id="Shape"></path>
                        </g>
                    </g>
                </g>
            </g>
        </g>
    </g>
</svg>