<?xml version="1.0" encoding="UTF-8" standalone="no"?>
<svg width="20px" height="20px" viewBox="0 0 20 20" version="1.1" xmlns="http://www.w3.org/2000/svg" xmlns:xlink="http://www.w3.org/1999/xlink">
    <!-- Generator: Sketch 46.2 (44496) - http://www.bohemiancoding.com/sketch -->
    <title>icon-qrcode</title>
    <desc>Created with Sketch.</desc>
    <defs></defs>
    <g id="-prototype-v0.1" stroke="none" stroke-width="1" fill="none" fill-rule="evenodd">
        <g id="buono-speso" transform="translate(-25.000000, -369.000000)">
            <g id="Group-7-Copy-3" transform="translate(0.000000, 355.000000)">
                <g id="icon-qrcode" transform="translate(23.000000, 12.000000)">
                    <polygon id="Shape" points="0 0 24 0 24 24 0 24"></polygon>
                    <path d="M4,2 C2.9,2 2,2.9 2,4 L2,10 L6,10 L6,12 L8,12 L8,10 L10,10 L10,2 L4,2 Z M10,10 L10,12 L8,12 L8,14 L6,14 L6,12 L4,12 L4,14 L2,14 L2,20 C2,21.1 2.9,22 4,22 L10,22 L12,22 L12,20 L10,20 L10,18 L12,18 L12,20 L14,20 L14,18 L16,18 L16,16 L20,16 L20,14 L22,14 L22,12 L20,12 L18,12 L18,14 L16,14 L16,12 L15,12 L14,12 L14,10 L12,10 L10,10 Z M14,10 L16,10 L16,12 L18,12 L18,10 L22,10 L22,4 C22,2.9 21.1,2 20,2 L14,2 L14,10 Z M20,16 L20,18 L22,18 L22,16 L20,16 Z M20,18 L18,18 L18,20 L20,20 L20,18 Z M20,20 L20,22 C21.1,22 22,21.1 22,20 L20,20 Z M18,20 L16,20 L16,22 L18,22 L18,20 Z M4,4 L8,4 L8,8 L4,8 L4,4 Z M16,4 L20,4 L20,8 L16,8 L16,4 Z M5,5 L5,7 L7,7 L7,5 L5,5 Z M17,5 L17,7 L19,7 L19,5 L17,5 Z M10,14 L12,14 L12,16 L10,16 L10,14 Z M4,16 L8,16 L8,20 L4,20 L4,16 Z M5,17 L5,19 L7,19 L7,17 L5,17 Z" id="Shape" fill="#30373D"></path>
                </g>
            </g>
        </g>
    </g>
</svg>