<?xml version="1.0" encoding="UTF-8" standalone="no"?>
<svg width="18px" height="18px" viewBox="0 0 18 18" version="1.1" xmlns="http://www.w3.org/2000/svg" xmlns:xlink="http://www.w3.org/1999/xlink">
    <!-- Generator: Sketch 46.2 (44496) - http://www.bohemiancoding.com/sketch -->
    <title>icon-map-06c</title>
    <desc>Created with Sketch.</desc>
    <defs></defs>
    <g id="-prototype-v0.1" stroke="none" stroke-width="1" fill="none" fill-rule="evenodd">
        <g id="negozi-fisici" transform="translate(-65.000000, -566.000000)">
            <g id="Group-5" transform="translate(0.000000, 547.000000)">
                <g id="Group-4" transform="translate(16.000000, 8.000000)">
                    <g id="Group-6" transform="translate(46.000000, 8.000000)">
                        <g id="icon-map-06c">
                            <polygon id="Shape" points="0 0 24 0 24 24 0 24"></polygon>
                            <path d="M20.5,3 L20.34,3.03 L15,5.1 L9,3 L3.36,4.9 C3.15,4.97 3,5.15 3,5.38 L3,20.5 C3,20.78 3.22,21 3.5,21 L3.66,20.97 L9,18.9 L15,21 L20.64,19.1 C20.85,19.03 21,18.85 21,18.62 L21,3.5 C21,3.22 20.78,3 20.5,3 Z M15,19 L9,16.89 L9,5 L15,7.11 L15,19 Z" id="Shape" fill="#0066CC"></path>
                        </g>
                    </g>
                </g>
            </g>
        </g>
    </g>
</svg>