<?xml version="1.0" encoding="UTF-8" standalone="no"?>
<svg width="20px" height="19px" viewBox="0 0 20 19" version="1.1" xmlns="http://www.w3.org/2000/svg" xmlns:xlink="http://www.w3.org/1999/xlink">
    <!-- Generator: Sketch 46.2 (44496) - http://www.bohemiancoding.com/sketch -->
    <title>icon-biglietti-06c</title>
    <desc>Created with Sketch.</desc>
    <defs></defs>
    <g id="-prototype-v0.1" stroke="none" stroke-width="1" fill="none" fill-rule="evenodd">
        <g id="nuovo-step02" transform="translate(-22.000000, -241.000000)">
            <g id="Group-9" transform="translate(0.000000, 217.000000)">
                <g id="icon-biglietti-06c" transform="translate(20.000000, 20.000000)">
                    <rect id="Rectangle-3" x="0" y="0" width="24" height="24"></rect>
                    <g id="Two-Tickets" transform="translate(2.000000, 4.000000)" fill="#0066CC">
                        <path d="M2,0 C0.896,0 0,0.895 0,2 L0,5 C1.104,5 2,5.895 2,7 C2,8.105 1.104,9 0,9 L0,12 C0,13.105 0.896,14 2,14 L18,14 C19.104,14 20,13.105 20,12 L20,9 C18.896,9 18,8.105 18,7 C18,5.895 18.896,5 20,5 L20,2 C20,0.895 19.104,0 18,0 L2,0 Z M2.125,15 L17.03125,18.59375 C18.10525,18.85275 19.1775,18.199 19.4375,17.125 L19.96875,15 L2.125,15 Z" id="Shape"></path>
                    </g>
                </g>
            </g>
        </g>
    </g>
</svg>