<?xml version="1.0" encoding="UTF-8" standalone="no"?>
<svg width="20px" height="20px" viewBox="0 0 20 20" version="1.1" xmlns="http://www.w3.org/2000/svg" xmlns:xlink="http://www.w3.org/1999/xlink">
    <!-- Generator: Sketch 46.2 (44496) - http://www.bohemiancoding.com/sketch -->
    <title>icon-libri-06c</title>
    <desc>Created with Sketch.</desc>
    <defs></defs>
    <g id="-prototype-v0.1" stroke="none" stroke-width="1" fill="none" fill-rule="evenodd">
        <g id="negozi-fisici-categoria" transform="translate(-29.000000, -208.000000)">
            <g id="Group-18" transform="translate(10.000000, 8.000000)">
                <g id="Group-8" transform="translate(17.000000, 198.000000)">
                    <g id="icon-libri-06c">
                        <rect id="Rectangle-11" x="0" y="0" width="24" height="24"></rect>
                        <g id="books" transform="translate(2.000000, 2.000000)" fill="#0271D2">
                            <path d="M2,0 C1.012,0 0,1.012 0,2 L0,14 C0,15.645455 1.3545455,17 3,17 L5,17 L5,15 L3,15 C2.4454545,15 2,14.554545 2,14 C2,13.445455 2.4454545,13 3,13 L5,13 L5,11 L5,5 L5,4 C5,3.012 6.012,2 7,2 L8,2 L14,2 L14,0 L2,0 Z M8,3 C7.012,3 6,4.012 6,5 L6,17 C6,18.645455 7.3545455,20 9,20 L20,20 L20,18 L9,18 C8.445455,18 8,17.554545 8,17 C8,16.445455 8.445455,16 9,16 L20,16 L20,15 L20,14 L20,3 L8,3 Z M10,6 L17,6 L17,8 L10,8 L10,6 Z" id="Shape"></path>
                        </g>
                    </g>
                </g>
            </g>
        </g>
    </g>
</svg>