<?xml version="1.0" encoding="UTF-8" standalone="no"?>
<svg width="18px" height="20px" viewBox="0 0 18 20" version="1.1" xmlns="http://www.w3.org/2000/svg" xmlns:xlink="http://www.w3.org/1999/xlink">
    <!-- Generator: Sketch 46.2 (44496) - http://www.bohemiancoding.com/sketch -->
    <title>icon-funnel-grey</title>
    <desc>Created with Sketch.</desc>
    <defs></defs>
    <g id="-prototype-v0.1" stroke="none" stroke-width="1" fill="none" fill-rule="evenodd">
        <g id="negozi-fisici-filtered-by-category-grouped" transform="translate(-31.000000, -141.000000)">
            <g id="Group-2" transform="translate(20.000000, 131.000000)">
                <g id="icon-funnel-grey" transform="translate(8.000000, 8.000000)">
                    <rect id="Rectangle-3" x="0" y="0" width="24" height="24"></rect>
                    <path d="M3,2 L3,5 L9,12 L15,12 L21,5 L21,2 L3,2 Z M5,4 L19,4 L19,4.28125 L17.5,6 L6.5,6 L5,4.28125 L5,4 Z M9,13 L9,18.5 L15,22 L15,13 L9,13 Z M11,15 L13,15 L13,19 L11,17.6548673 L11,15 Z" id="Shape" fill="#A9B1B8"></path>
                </g>
            </g>
        </g>
    </g>
</svg>