<?xml version="1.0" encoding="UTF-8" standalone="no"?>
<svg width="24px" height="38px" viewBox="0 0 24 38" version="1.1" xmlns="http://www.w3.org/2000/svg" xmlns:xlink="http://www.w3.org/1999/xlink">
    <!-- Generator: Sketch 46.2 (44496) - http://www.bohemiancoding.com/sketch -->
    <title>navigation-info</title>
    <desc>Created with Sketch.</desc>
    <defs></defs>
    <g id="Symbols" stroke="none" stroke-width="1" fill="none" fill-rule="evenodd">
        <g id="navigation-info" transform="translate(-28.000000, -14.000000)">
            <g>
                <rect id="Rectangle-Copy-9" x="0" y="0" width="80" height="64"></rect>
                <g id="Group-6" transform="translate(5.000000, 14.000000)" fill="#FFFFFF">
                    <text id="Info" font-family="TitilliumWeb-SemiBold, Titillium Web" font-size="11" font-weight="500">
                        <tspan x="25.387" y="37">Info</tspan>
                    </text>
                    <g id="Group-9" transform="translate(23.000000, 0.000000)">
                        <path d="M12,24 C5.372583,24 0,18.627417 0,12 C0,5.372583 5.372583,0 12,0 C18.627417,0 24,5.372583 24,12 C24,18.627417 18.627417,24 12,24 Z M12,23 C18.0751322,23 23,18.0751322 23,12 C23,5.92486775 18.0751322,1 12,1 C5.92486775,1 1,5.92486775 1,12 C1,18.0751322 5.92486775,23 12,23 Z M14,10 L14,19 L10,19 L10,10 L14,10 Z M12,8 C10.8954305,8 10,7.1045695 10,6 C10,4.8954305 10.8954305,4 12,4 C13.1045695,4 14,4.8954305 14,6 C14,7.1045695 13.1045695,8 12,8 Z M14,17 L15,17 L15,19 L14,19 L14,17 Z M9,17 L10,17 L10,19 L9,19 L9,17 Z M9,10 L10,10 L10,12 L9,12 L9,10 Z" id="Combined-Shape"></path>
                    </g>
                </g>
            </g>
        </g>
    </g>
</svg>