<?xml version="1.0" encoding="UTF-8" standalone="no"?>
<svg
   xmlns:dc="http://purl.org/dc/elements/1.1/"
   xmlns:cc="http://creativecommons.org/ns#"
   xmlns:rdf="http://www.w3.org/1999/02/22-rdf-syntax-ns#"
   xmlns:svg="http://www.w3.org/2000/svg"
   xmlns="http://www.w3.org/2000/svg"
   xmlns:sodipodi="http://sodipodi.sourceforge.net/DTD/sodipodi-0.dtd"
   xmlns:inkscape="http://www.inkscape.org/namespaces/inkscape"
   width="120px"
   height="120px"
   viewBox="0 0 120 120"
   version="1.1"
   id="svg13"
   sodipodi:docname="app-icon.svg"
   inkscape:version="0.92.3 (2405546, 2018-03-11)"
   inkscape:export-filename="C:\Users\ncara\source\repos\18App\Artworks\Svg\app-icon.png"
   inkscape:export-xdpi="153.60001"
   inkscape:export-ydpi="153.60001">
  <metadata
     id="metadata17">
    <rdf:RDF>
      <cc:Work
         rdf:about="">
        <dc:format>image/svg+xml</dc:format>
        <dc:type
           rdf:resource="http://purl.org/dc/dcmitype/StillImage" />
        <dc:title>app-icon</dc:title>
      </cc:Work>
    </rdf:RDF>
  </metadata>
  <sodipodi:namedview
     pagecolor="#ffffff"
     bordercolor="#666666"
     borderopacity="1"
     objecttolerance="10"
     gridtolerance="10"
     guidetolerance="10"
     inkscape:pageopacity="0"
     inkscape:pageshadow="2"
     inkscape:window-width="1920"
     inkscape:window-height="1027"
     id="namedview15"
     showgrid="false"
     inkscape:zoom="3.9333333"
     inkscape:cx="50.268439"
     inkscape:cy="48.872459"
     inkscape:window-x="-8"
     inkscape:window-y="-8"
     inkscape:window-maximized="1"
     inkscape:current-layer="app-icon" />
  <!-- Generator: Sketch 46.2 (44496) - http://www.bohemiancoding.com/sketch -->
  <title
     id="title2">app-icon</title>
  <desc
     id="desc4">Created with Sketch.</desc>
  <defs
     id="defs6" />
  <g
     id="-prototype-v0.1"
     style="fill:none;fill-rule:evenodd;stroke:none;stroke-width:1">
    <g
       id="icon">
      <g
         id="app-icon"
         style="opacity:1">
        <ellipse
           inkscape:label="Shadow"
           cy="60.983089"
           cx="60.122288"
           id="circle4537"
           style="opacity:0.63297873;fill:#6b6b6b;fill-opacity:1;stroke:none;stroke-width:0.60898793;stroke-miterlimit:4;stroke-dasharray:none;stroke-opacity:1"
           rx="50.458633"
           ry="51.041012" />
        <circle
           style="display:inline;fill:#0066cc;fill-opacity:1;stroke:none;stroke-width:0.60000002;stroke-miterlimit:4;stroke-dasharray:none;stroke-opacity:1"
           id="path4535"
           cx="60"
           cy="60"
           inkscape:label="Circle"
           r="50"
           sodipodi:insensitive="true" />
        <path
           d="m 86.349456,29.205372 c 12.992437,10.4593 3.67555,18.579265 -5.10288,20.282224 -1.653708,0.321225 -5.974394,0.764652 -9.742881,-1.843026 C 67.73557,45.037605 60.534184,42.887289 55.734345,39.826536 50.934506,36.765068 49.30575,34.285308 48.5109,32.239684 c -0.79485,-2.045624 -3.705925,-0.0029 -3.867571,3.250844 -0.161285,3.252988 2.23086,7.696905 5.369397,9.416658 3.138537,1.719753 5.868439,4.345655 4.0209,5.703448 -1.847538,1.357794 -4.854444,3.156156 -6.861097,4.104826 -2.006292,0.948669 -4.829131,2.488693 -4.180739,5.622695 0.64767,3.13436 1.665642,4.531816 3.276678,4.765499 -1.287744,1.333497 -0.710592,5.996446 2.78523,6.923319 -1.102954,2.296101 1.728564,5.916051 5.421833,5.641276 0.145373,2.574092 1.754601,5.249303 5.785988,4.377099 4.032834,-0.872204 13.134917,-3.746082 18.090978,-7.237756 C 91.432809,65.59246 97.99629,78.005554 91.01007,86.281665 86.909612,91.139351 81.394842,94.906871 75.001325,97.331962 54.13018,105.24933 30.713561,94.949392 22.700329,74.32629 14.687097,53.702474 25.112001,30.565667 45.983146,22.6483 c 14.15072,-5.367931 29.3968,-2.273947 40.36631,6.557072 z"
           id="Fill-1"
           inkscape:connector-curvature="0"
           style="display:inline;fill:#ffffff"
           inkscape:label="Logo"
           sodipodi:insensitive="true" />
      </g>
    </g>
  </g>
</svg>
