<?xml version="1.0" encoding="UTF-8" standalone="no"?>
<svg
   xmlns:dc="http://purl.org/dc/elements/1.1/"
   xmlns:cc="http://creativecommons.org/ns#"
   xmlns:rdf="http://www.w3.org/1999/02/22-rdf-syntax-ns#"
   xmlns:svg="http://www.w3.org/2000/svg"
   xmlns="http://www.w3.org/2000/svg"
   xmlns:sodipodi="http://sodipodi.sourceforge.net/DTD/sodipodi-0.dtd"
   xmlns:inkscape="http://www.inkscape.org/namespaces/inkscape"
   width="24"
   height="24"
   viewBox="0 0 24 24"
   version="1.1"
   id="svg14"
   sodipodi:docname="cat_music_black.svg"
   inkscape:version="0.92.3 (2405546, 2018-03-11)"
   inkscape:export-filename="C:\Users\ncara\Desktop\fucina\cat_music.png"
   inkscape:export-xdpi="376"
   inkscape:export-ydpi="376"><metadata
   id="metadata18">
  <rdf:RDF>
    <cc:Work
       rdf:about="">
      <dc:format>image/svg+xml</dc:format>
      <dc:type
         rdf:resource="http://purl.org/dc/dcmitype/StillImage" />
      <dc:title>cat_training_black</dc:title>
    </cc:Work>
  </rdf:RDF>
</metadata>
<sodipodi:namedview
   pagecolor="#ffffff"
   bordercolor="#666666"
   borderopacity="1"
   objecttolerance="10"
   gridtolerance="10"
   guidetolerance="10"
   inkscape:pageopacity="0"
   inkscape:pageshadow="2"
   inkscape:window-width="1645"
   inkscape:window-height="1127"
   id="namedview16"
   showgrid="false"
   inkscape:zoom="11.8"
   inkscape:cx="15.532417"
   inkscape:cy="15.452128"
   inkscape:window-x="1261"
   inkscape:window-y="87"
   inkscape:window-maximized="0"
   inkscape:current-layer="svg14"
   fit-margin-top="0"
   fit-margin-left="0"
   fit-margin-right="0"
   fit-margin-bottom="0"
   showguides="true"
   inkscape:guide-bbox="true" />
<!-- Generator: Sketch 46.2 (44496) - http://www.bohemiancoding.com/sketch -->
<title
   id="title2">cat_training_black</title>
<desc
   id="desc4">Created with Sketch.</desc>
<defs
   id="defs6">
	
	
	
	
</defs>
<g
   style="fill:none;fill-rule:evenodd;stroke:none;stroke-width:1"
   id="cat_music_black"
   inkscape:label="cat_music_black"
   inkscape:export-filename="C:\Users\ncara\Desktop\fucina\cat_music_black.png"
   inkscape:export-xdpi="376"
   inkscape:export-ydpi="376">
  <rect
     id="Frame"
     x="0"
     y="0"
     width="24"
     height="24"
     inkscape:label="Frame" />
  <path
     inkscape:connector-curvature="0"
     d="m 17.456205,12.605794 c -0.03923,-0.0066 -0.07763,-0.0097 -0.114883,-0.0097 -0.348515,0 -0.616562,0.277175 -0.616562,0.645591 v 4.218318 c -0.238277,-0.08754 -0.494483,-0.137457 -0.762776,-0.137457 -1.225599,0 -2.219211,0.993612 -2.219211,2.219211 0,0.555173 0.205465,1.061662 0.542755,1.450719 0.406696,0.469606 1.006317,0.768492 1.676744,0.768492 0.898054,0 1.671028,-0.533422 2.020159,-1.300598 0.169077,-0.371376 0.193624,-1.041555 0.19494,-1.450061 3.29e-4,-0.06801 3.29e-4,-0.141199 6.99e-4,-0.215663 0.0038,-1.352982 0.0038,-3.665941 0.0038,-3.665941 1.121447,0 1.773987,0.264634 2.137468,0.643576 0.566193,0.590123 0.426433,1.460751 0.222283,2.061565 -0.07582,0.22327 -0.08207,0.339263 -0.01994,0.339263 0.04519,0 0.126355,-0.0618 0.242719,-0.188854 1.866091,-2.032372 1.351296,-3.332928 0.171173,-4.154339 -1.033907,-0.718739 -2.576031,-1.070502 -3.479349,-1.224077 z m -5.641817,-1.654211 c 0.414344,0 0.750071,0.335809 0.750071,0.750235 0,0.414262 -0.335727,0.749907 -0.750071,0.749907 -0.414139,0 -0.750071,-0.335645 -0.750071,-0.749907 0,-0.414426 0.335932,-0.750235 0.750071,-0.750235 z m 6.786003,4.612103 c -3.29e-4,0.63671 -6.58e-4,1.851618 -0.0025,2.809786 0.60583,-0.648099 1.120296,-1.382134 1.523168,-2.182616 -0.0054,-0.0077 -0.0082,-0.01632 -0.01402,-0.02356 -0.245473,-0.343252 -0.762694,-0.549211 -1.50668,-0.60361 z m -6.821734,5.772325 c 0.708871,0 1.397964,-0.08158 2.061853,-0.231041 -0.324132,-0.437781 -0.51755,-0.977411 -0.51755,-1.562888 0,-1.455324 1.183576,-2.638736 2.638736,-2.638736 0.115006,0 0.22952,0.0076 0.343251,0.02274 v -3.684403 c 0,-0.597278 0.455257,-1.065445 1.035923,-1.065445 0.06147,0 0.123764,0.0051 0.185236,0.01583 0.98103,0.167062 2.421551,0.513109 3.485804,1.191841 0.06743,-0.451802 0.102671,-0.913884 0.102671,-1.384478 0,-5.156668 -4.179709,-9.3366233 -9.336582,-9.3366233 -5.1566271,-4.11e-5 -9.3360068,4.1802431 -9.3360068,9.3365823 0,5.156051 4.1800376,9.336623 9.3366648,9.336623 z m 3.858578,-9.455824 c 0,2.131301 -1.727359,3.858661 -3.858578,3.858661 -2.1310547,0 -3.858661,-1.72736 -3.858661,-3.858661 0,-2.131054 1.7276063,-3.8586603 3.858661,-3.8586603 2.131219,0 3.858578,1.7279353 3.858578,3.8586603 z M 7.3482938,4.4492516 9.2776653,7.8789301 c 0,0 -1.169802,0.5971541 -1.5720165,1.7149831 L 3.9900781,8.0218556 C 5.2763258,5.2352187 7.3482938,4.4492516 7.3482938,4.4492516 Z"
     style="fill:#000000;fill-opacity:1;stroke-width:0.04111782"
     id="Shape"
     inkscape:label="Shape" />
</g>

















</svg>
