<?xml version="1.0" encoding="UTF-8" standalone="no"?>
<svg
   xmlns:dc="http://purl.org/dc/elements/1.1/"
   xmlns:cc="http://creativecommons.org/ns#"
   xmlns:rdf="http://www.w3.org/1999/02/22-rdf-syntax-ns#"
   xmlns:svg="http://www.w3.org/2000/svg"
   xmlns="http://www.w3.org/2000/svg"
   xmlns:sodipodi="http://sodipodi.sourceforge.net/DTD/sodipodi-0.dtd"
   xmlns:inkscape="http://www.inkscape.org/namespaces/inkscape"
   width="24"
   height="24"
   viewBox="0 0 24 24"
   version="1.1"
   id="svg16"
   sodipodi:docname="cat_event_black.svg"
   inkscape:version="0.92.3 (2405546, 2018-03-11)"
   inkscape:export-filename="C:\Users\ncara\Desktop\fucina\cat_event_black.png"
   inkscape:export-xdpi="344"
   inkscape:export-ydpi="344">
  <metadata
     id="metadata20">
    <rdf:RDF>
      <cc:Work
         rdf:about="">
        <dc:format>image/svg+xml</dc:format>
        <dc:type
           rdf:resource="http://purl.org/dc/dcmitype/StillImage" />
        <dc:title>icon-eventi-06c</dc:title>
      </cc:Work>
    </rdf:RDF>
  </metadata>
  <sodipodi:namedview
     pagecolor="#ffffff"
     bordercolor="#666666"
     borderopacity="1"
     objecttolerance="10"
     gridtolerance="10"
     guidetolerance="10"
     inkscape:pageopacity="0"
     inkscape:pageshadow="2"
     inkscape:window-width="2736"
     inkscape:window-height="1824"
     id="namedview18"
     showgrid="false"
     fit-margin-top="0"
     fit-margin-left="0"
     fit-margin-right="0"
     fit-margin-bottom="0"
     inkscape:zoom="11.238095"
     inkscape:cx="-43.391949"
     inkscape:cy="11.5"
     inkscape:window-x="0"
     inkscape:window-y="0"
     inkscape:window-maximized="0"
     inkscape:current-layer="svg16" />
  <!-- Generator: Sketch 46.2 (44496) - http://www.bohemiancoding.com/sketch -->
  <title
     id="title2">icon-eventi-06c</title>
  <desc
     id="desc4">Created with Sketch.</desc>
  <defs
     id="defs6" />
  <g
     style="fill:none;fill-rule:evenodd;stroke:none;stroke-width:1"
     id="icon-eventi-06c"
     inkscape:label="cat_event_black">
    <rect
       id="Rectangle-5"
       x="0"
       y="0"
       width="24"
       height="24"
       inkscape:label="Frame" />
    <path
       style="fill:#000000"
       inkscape:connector-curvature="0"
       id="Shape"
       d="m 12,1.5 v 2 h 4 l -1,-1 1,-1 z m 0,3 7,7 v 2 c 0,0 0.244,1 1.5,1 1.256,0 1.5,-1 1.5,-1 v -2 z m 0,0 1,7 v 2 c 0,0 0.496,1 2,1 1.504,0 2,-1 2,-1 v -2 z m 0,0 -5,7 v 2 c 0,0 0.496,1 2,1 1.504,0 2,-1 2,-1 v -2 z m 0,0 -10,7 v 2 c 0,0 0.244,1 1.5,1 1.256,0 1.5,-1 1.5,-1 v -2 z m -6,10 c 0,0 -0.992,1 -2.5,1 -0.215,0 -0.41075,-0.0255 -0.59375,-0.0625 L 2,22.5 h 7 l 1,-4 h 4 l 1,4 h 7 L 21.09375,15.4375 C 20.91075,15.4745 20.715,15.5 20.5,15.5 c -1.737,0 -2.5,-1 -2.5,-1 0,0 -1.148,1 -3,1 -1.597,0 -3,-1 -3,-1 0,0 -1.411,1 -3,1 -1.826,0 -3,-1 -3,-1 z" />
  </g>
</svg>
