<?xml version="1.0" encoding="UTF-8" standalone="no"?>
<svg
   xmlns:dc="http://purl.org/dc/elements/1.1/"
   xmlns:cc="http://creativecommons.org/ns#"
   xmlns:rdf="http://www.w3.org/1999/02/22-rdf-syntax-ns#"
   xmlns:svg="http://www.w3.org/2000/svg"
   xmlns="http://www.w3.org/2000/svg"
   xmlns:sodipodi="http://sodipodi.sourceforge.net/DTD/sodipodi-0.dtd"
   xmlns:inkscape="http://www.inkscape.org/namespaces/inkscape"
   width="24"
   height="24"
   viewBox="0 0 24 24"
   version="1.1"
   id="svg14"
   sodipodi:docname="cat_training_black.svg"
   inkscape:version="0.92.3 (2405546, 2018-03-11)"
   inkscape:export-filename="C:\Users\ncara\Desktop\fucina\cat_theatre.png"
   inkscape:export-xdpi="376"
   inkscape:export-ydpi="376">
  <metadata
     id="metadata18">
    <rdf:RDF>
      <cc:Work
         rdf:about="">
        <dc:format>image/svg+xml</dc:format>
        <dc:type
           rdf:resource="http://purl.org/dc/dcmitype/StillImage" />
        <dc:title>cat_training_black</dc:title>
      </cc:Work>
    </rdf:RDF>
  </metadata>
  <sodipodi:namedview
     pagecolor="#ffffff"
     bordercolor="#666666"
     borderopacity="1"
     objecttolerance="10"
     gridtolerance="10"
     guidetolerance="10"
     inkscape:pageopacity="0"
     inkscape:pageshadow="2"
     inkscape:window-width="1645"
     inkscape:window-height="1127"
     id="namedview16"
     showgrid="false"
     inkscape:zoom="16.68772"
     inkscape:cx="14.335539"
     inkscape:cy="18.886561"
     inkscape:window-x="1261"
     inkscape:window-y="87"
     inkscape:window-maximized="0"
     inkscape:current-layer="svg14"
     fit-margin-top="0"
     fit-margin-left="0"
     fit-margin-right="0"
     fit-margin-bottom="0"
     showguides="true"
     inkscape:guide-bbox="true" />
  <!-- Generator: Sketch 46.2 (44496) - http://www.bohemiancoding.com/sketch -->
  <title
     id="title2">cat_training_black</title>
  <desc
     id="desc4">Created with Sketch.</desc>
  <defs
     id="defs6" />
  <g
     style="fill:none;fill-rule:evenodd;stroke:none;stroke-width:1"
     id="cat_training_black"
     inkscape:label="cat_training_black">
    <rect
       id="Frame"
       x="0"
       y="0"
       width="24"
       height="24"
       inkscape:label="Frame" />
    <path
       id="path884"
       style="fill:#000000;fill-opacity:1;stroke:none;stroke-width:0.44193619px;stroke-linecap:butt;stroke-linejoin:miter;stroke-opacity:1"
       d="m 12.723929,13.589395 c 0.753116,-0.284029 4.864387,-2.087616 4.864387,-2.087616 v 4.019014 c 0,0.553859 -0.01,0.845348 -0.308653,1.192925 -1.037078,1.207124 -2.716155,2.016607 -4.88908,2.016607 -2.172926,0 -4.7293472,-0.795281 -5.4693502,-2.002405 -0.2264509,-0.369399 -0.3706617,-0.665432 -0.3703848,-1.207127 3.702e-4,-0.724413 -1e-7,-3.990611 -1e-7,-3.990611 0,0 4.6298111,1.874594 4.9755041,2.045011 0.345691,0.170419 0.777809,0.184619 1.197577,0.01422 z M 12.069839,2.9454039 c -0.197537,0.0071 -0.419965,0.078316 -0.716273,0.220327 C 10.760949,3.4497606 2.4645287,7.0853254 2.4645287,7.0853254 2.0324131,7.312549 1.8840373,7.7955841 2.3655377,7.9944052 c 0.207654,0.085741 1.6298627,0.7069898 2.7355218,1.1886529 -0.00648,0.01452 -0.013302,0.033122 -0.019313,0.046292 -0.6420002,1.2152659 -0.6916981,1.8787329 -0.7865524,2.4121859 -0.094854,0.533453 -0.1235862,1.412791 -0.2258879,1.663856 -0.1023017,0.251065 -0.4324552,0.918668 -0.4201065,1.33492 0.012349,0.416252 0.355824,0.908761 0.4450556,1.1507 0.089232,0.241939 0.095387,0.474862 0.061168,0.766515 -0.034219,0.291653 -0.5062198,3.763744 -0.5062198,4.445415 0,0.68167 0.3360941,0.589043 0.5786522,0.600808 0.2425581,0.01176 1.0111242,6.08e-4 1.3480434,-0.01574 0.3369192,-0.01635 0.2465433,-0.386817 0.2341974,-0.685049 C 5.7977505,20.604729 5.5010702,17.083274 5.4640316,16.586222 5.426993,16.08917 5.4519251,15.805271 5.5260046,15.663256 5.6000841,15.521241 5.8179428,15.246469 5.8720692,14.810647 5.9338002,14.313598 5.709488,13.741432 5.6000468,13.51831 5.4906056,13.295188 5.4369397,13.085917 5.4747375,12.479792 c 0.037798,-0.606125 0.6693321,-1.989688 1.2210461,-2.5342598 2.2910951,0.9989938 4.2351944,1.7769728 4.7068834,1.9684698 0.83954,0.340834 0.593079,0.284028 1.284464,0 0.691385,-0.284029 8.098663,-3.5790941 8.790046,-3.863124 C 22.168565,7.7668543 22.267192,7.2551612 21.773346,7.0279374 21.279498,6.8007138 13.032311,3.3355668 12.637234,3.108344 12.439695,2.9947316 12.267386,2.9383121 12.069846,2.9454129 Z"
       inkscape:connector-curvature="0"
       inkscape:label="Shape"
       sodipodi:nodetypes="ccscscscccccccccczzzzzzzzzzzczzcccccccc" />
  </g>
</svg>
