<?xml version="1.0" encoding="UTF-8" standalone="no"?>
<svg
   xmlns:dc="http://purl.org/dc/elements/1.1/"
   xmlns:cc="http://creativecommons.org/ns#"
   xmlns:rdf="http://www.w3.org/1999/02/22-rdf-syntax-ns#"
   xmlns:svg="http://www.w3.org/2000/svg"
   xmlns="http://www.w3.org/2000/svg"
   xmlns:sodipodi="http://sodipodi.sourceforge.net/DTD/sodipodi-0.dtd"
   xmlns:inkscape="http://www.inkscape.org/namespaces/inkscape"
   width="24"
   height="24"
   viewBox="0 0 24 24"
   version="1.1"
   id="svg16"
   sodipodi:docname="cat_book.svg"
   inkscape:version="0.92.3 (2405546, 2018-03-11)"
   inkscape:export-filename="C:\Users\ncara\Desktop\fucina\cat_book.png"
   inkscape:export-xdpi="344"
   inkscape:export-ydpi="344">
  <metadata
     id="metadata20">
    <rdf:RDF>
      <cc:Work
         rdf:about="">
        <dc:format>image/svg+xml</dc:format>
        <dc:type
           rdf:resource="http://purl.org/dc/dcmitype/StillImage" />
        <dc:title>icon-libri-06c</dc:title>
      </cc:Work>
    </rdf:RDF>
  </metadata>
  <sodipodi:namedview
     pagecolor="#ffffff"
     bordercolor="#666666"
     borderopacity="1"
     objecttolerance="10"
     gridtolerance="10"
     guidetolerance="10"
     inkscape:pageopacity="0"
     inkscape:pageshadow="2"
     inkscape:window-width="2494"
     inkscape:window-height="1885"
     id="namedview18"
     showgrid="false"
     fit-margin-top="0"
     fit-margin-left="0"
     fit-margin-right="0"
     fit-margin-bottom="0"
     inkscape:zoom="11.8"
     inkscape:cx="-15.559322"
     inkscape:cy="12"
     inkscape:window-x="877"
     inkscape:window-y="768"
     inkscape:window-maximized="0"
     inkscape:current-layer="svg16" />
  <!-- Generator: Sketch 46.2 (44496) - http://www.bohemiancoding.com/sketch -->
  <title
     id="title2">icon-libri-06c</title>
  <desc
     id="desc4">Created with Sketch.</desc>
  <defs
     id="defs6" />
  <g
     style="fill:none;fill-rule:evenodd;stroke:none;stroke-width:1"
     id="icon-libri-06c"
     inkscape:label="cat_book">
    <rect
       id="Rectangle-11"
       x="0"
       y="0"
       width="24"
       height="24"
       inkscape:label="Frame"
       inkscape:export-filename="C:\Users\ncara\Desktop\fucina\cat_book.png"
       inkscape:export-xdpi="344"
       inkscape:export-ydpi="344" />
    <path
       style="fill:#0271d2"
       inkscape:connector-curvature="0"
       id="Shape"
       d="M 4,2 C 3.012,2 2,3.012 2,4 v 12 c 0,1.645455 1.3545455,3 3,3 H 7 V 17 H 5 C 4.4454545,17 4,16.554545 4,16 4,15.445455 4.4454545,15 5,15 H 7 V 13 7 6 C 7,5.012 8.012,4 9,4 h 1 6 V 2 Z m 6,3 C 9.012,5 8,6.012 8,7 v 12 c 0,1.645455 1.3545455,3 3,3 H 22 V 20 H 11 c -0.554545,0 -1,-0.445455 -1,-1 0,-0.554545 0.445455,-1 1,-1 H 22 V 17 16 5 Z m 2,3 h 7 v 2 h -7 z"
       inkscape:label="Shape"
       inkscape:export-filename="C:\Users\ncara\Desktop\fucina\cat_book.png"
       inkscape:export-xdpi="344"
       inkscape:export-ydpi="344" />
  </g>
</svg>
