<?xml version="1.0" encoding="UTF-8" standalone="no"?>
<svg
   xmlns:dc="http://purl.org/dc/elements/1.1/"
   xmlns:cc="http://creativecommons.org/ns#"
   xmlns:rdf="http://www.w3.org/1999/02/22-rdf-syntax-ns#"
   xmlns:svg="http://www.w3.org/2000/svg"
   xmlns="http://www.w3.org/2000/svg"
   xmlns:sodipodi="http://sodipodi.sourceforge.net/DTD/sodipodi-0.dtd"
   xmlns:inkscape="http://www.inkscape.org/namespaces/inkscape"
   width="24"
   height="24"
   viewBox="0 0 24 24"
   version="1.1"
   id="svg14"
   sodipodi:docname="cat_theatre_black.svg"
   inkscape:version="0.92.3 (2405546, 2018-03-11)"
   inkscape:export-filename="C:\Users\ncara\Desktop\fucina\cat_theatre_black.png"
   inkscape:export-xdpi="344"
   inkscape:export-ydpi="344">
  <metadata
     id="metadata18">
    <rdf:RDF>
      <cc:Work
         rdf:about="">
        <dc:format>image/svg+xml</dc:format>
        <dc:type
           rdf:resource="http://purl.org/dc/dcmitype/StillImage" />
        <dc:title>cat_theatre_black</dc:title>
      </cc:Work>
    </rdf:RDF>
  </metadata>
  <sodipodi:namedview
     pagecolor="#ffffff"
     bordercolor="#666666"
     borderopacity="1"
     objecttolerance="10"
     gridtolerance="10"
     guidetolerance="10"
     inkscape:pageopacity="0"
     inkscape:pageshadow="2"
     inkscape:window-width="2603"
     inkscape:window-height="1824"
     id="namedview16"
     showgrid="false"
     inkscape:zoom="11.8"
     inkscape:cx="-24.533232"
     inkscape:cy="12"
     inkscape:window-x="0"
     inkscape:window-y="0"
     inkscape:window-maximized="0"
     inkscape:current-layer="svg14"
     fit-margin-top="0"
     fit-margin-left="0"
     fit-margin-right="0"
     fit-margin-bottom="0" />
  <!-- Generator: Sketch 46.2 (44496) - http://www.bohemiancoding.com/sketch -->
  <title
     id="title2">cat_theatre_black</title>
  <desc
     id="desc4">Created with Sketch.</desc>
  <defs
     id="defs6" />
  <g
     style="fill:none;fill-rule:evenodd;stroke:none;stroke-width:1"
     id="cat_theatre_black"
     inkscape:label="cat_theatre_black">
    <rect
       id="Frame"
       x="0"
       y="0"
       width="24"
       height="24"
       inkscape:label="Frame" />
    <path
       style="fill:#000000"
       inkscape:connector-curvature="0"
       id="Shape"
       d="m 13.551898,2.0468013 c -0.134399,0.012636 -0.269551,0.052066 -0.40625,0.09375 v -0.0625 l -0.125,0.03125 -9.5937493,2.46875 c -0.031746,0.00887 -0.063034,0.019295 -0.09375,0.03125 -0.9055415,0.3622166 -1.5130724,1.3408881 -1.3125,2.34375 -6.511e-4,0.020828 -6.511e-4,0.041672 0,0.0625 l 1.8125,6.7812497 c -1.627e-4,0.01042 -1.627e-4,0.02083 0,0.03125 0.5704372,1.939486 2.1095394,3.122305 3.65625,3.8125 0.4739492,0.766236 1.0734068,1.444393 1.65625,2 1.4477733,1.380121 2.9687493,2.1875 2.9687493,2.1875 0.189125,0.108715 0.40861,0.152612 0.625,0.125 0,0 0.439251,-0.07803 1.09375,-0.25 0.654499,-0.171965 1.524246,-0.437859 2.4375,-0.84375 0.68494,-0.304418 1.426467,-0.688915 2.09375,-1.1875 0.222428,-0.166195 0.420337,-0.33969 0.625,-0.53125 0.818653,-0.76624 1.469117,-1.752099 1.6875,-3 l 1.28125,-6.9999997 c 0.01065,-0.010185 0.02107,-0.020604 0.03125,-0.03125 0.185902,-1.115413 -0.565745,-2.138149 -1.59375,-2.34375 -0.01042,-1.628e-4 -0.02083,-1.628e-4 -0.03125,0 l -4.09375,-0.75 -0.6875,-2.46875 c -0.0051,-0.025382 -0.02527,-0.037716 -0.03125,-0.0625 -0.129887,-0.5384965 -0.483397,-0.9290896 -0.90625,-1.1875 -0.305827,-0.1868943 -0.690553,-0.2879067 -1.09375,-0.25 z m -4.6874993,3.1875 v 0.03125 c -0.4791804,0.3017257 -0.8591879,0.7650639 -1.03125,1.28125 -0.013093,0.040952 -0.023531,0.082705 -0.03125,0.125 l -0.34375,2.0625 c -0.091207,-2.721e-4 -0.191151,0.00873 -0.28125,0.03125 -0.8,0.2 -1.1875,1.3749997 -1.1875,1.3749997 0,0 0.5222723,0.461144 1.125,0.59375 l -0.5,2.9375 c -0.056567,0.323241 -0.067126,0.628519 -0.0625,0.9375 -0.3432605,-0.373246 -0.6224294,-0.797699 -0.78125,-1.3125 l -1.8125,-6.7499997 c 5.724e-4,0.00286 -7.085e-4,-0.024717 0.09375,-0.0625 z m 0.9687497,1.71875 c 0.0258,-0.024931 0.05146,-0.00705 0.09375,0 l 5.0624996,0.90625 -1.5,8.0937497 -3,-0.5 0.09375,0.1875 c 0.393171,1.179512 1.358565,2.092535 2.53125,2.3125 l -0.34375,1.90625 c -0.248134,-0.141632 -1.160751,-0.64915 -2.25,-1.6875 -1.0738218,-1.023644 -1.9418652,-2.287029 -1.9687493,-3.59375 -0.00384,-0.186674 -0.00162,-0.374649 0.03125,-0.5625 L 9.7393984,7.1718013 c 0.042025,-0.1260747 0.067955,-0.193819 0.09375,-0.21875 z m 1.7499996,3.4687497 c -0.708203,0.03828 -1.40625,0.71875 -1.40625,0.71875 0,0 0.5125,1.2125 1.3125,1.3125 0.8,0.2 1.6875,-0.6875 1.6875,-0.6875 0,0 -0.48125,-1.2125 -1.28125,-1.3125 -0.1,-0.025 -0.211328,-0.03672 -0.3125,-0.03125 z m 6.09375,1.09375 c 0.101172,-0.0055 0.2125,0.0062 0.3125,0.03125 0.733333,0.09167 1.206134,1.081308 1.28125,1.25 v 0.03125 l -0.03125,0.0625 c -0.133876,0.113595 -0.924543,0.747713 -1.65625,0.65625 -0.8,-0.1 -1.28125,-1.28125 -1.28125,-1.28125 0,0 0.666797,-0.711719 1.375,-0.75 z"
       inkscape:label="Shape" />
  </g>
</svg>
