<?xml version="1.0" encoding="UTF-8" standalone="no"?>
<svg
   xmlns:dc="http://purl.org/dc/elements/1.1/"
   xmlns:cc="http://creativecommons.org/ns#"
   xmlns:rdf="http://www.w3.org/1999/02/22-rdf-syntax-ns#"
   xmlns:svg="http://www.w3.org/2000/svg"
   xmlns="http://www.w3.org/2000/svg"
   xmlns:sodipodi="http://sodipodi.sourceforge.net/DTD/sodipodi-0.dtd"
   xmlns:inkscape="http://www.inkscape.org/namespaces/inkscape"
   width="24"
   height="24"
   viewBox="0 0 24 24"
   version="1.1"
   id="svg15"
   sodipodi:docname="euro_black.svg"
   inkscape:version="0.92.3 (2405546, 2018-03-11)"
   inkscape:export-filename="C:\Users\ncara\Desktop\fucina\euro_black.png"
   inkscape:export-xdpi="376"
   inkscape:export-ydpi="376">
  <metadata
     id="metadata19">
    <rdf:RDF>
      <cc:Work
         rdf:about="">
        <dc:format>image/svg+xml</dc:format>
        <dc:type
           rdf:resource="http://purl.org/dc/dcmitype/StillImage" />
        <dc:title>euro_black</dc:title>
      </cc:Work>
    </rdf:RDF>
  </metadata>
  <sodipodi:namedview
     pagecolor="#ffffff"
     bordercolor="#666666"
     borderopacity="1"
     objecttolerance="10"
     gridtolerance="10"
     guidetolerance="10"
     inkscape:pageopacity="0"
     inkscape:pageshadow="2"
     inkscape:window-width="1362"
     inkscape:window-height="1120"
     id="namedview17"
     showgrid="false"
     inkscape:zoom="13.111111"
     inkscape:cx="10.628718"
     inkscape:cy="14.987288"
     inkscape:window-x="1367"
     inkscape:window-y="122"
     inkscape:window-maximized="0"
     inkscape:current-layer="svg15"
     fit-margin-top="0"
     fit-margin-left="0"
     fit-margin-right="0"
     fit-margin-bottom="0" />
  <!-- Generator: Sketch 46.2 (44496) - http://www.bohemiancoding.com/sketch -->
  <title
     id="title2">euro_black</title>
  <desc
     id="desc4">Created with Sketch.</desc>
  <defs
     id="defs6" />
  <g
     id="euro_black"
     style="fill:none;fill-rule:evenodd;stroke:none;stroke-width:1"
     inkscape:label="euro_black"
     transform="translate(-4.1059322,-14.097458)"
     inkscape:export-filename="C:\Users\ncara\Desktop\fucina\euro_black.png"
     inkscape:export-xdpi="344"
     inkscape:export-ydpi="344">
    <rect
       style="fill:none;fill-rule:evenodd;stroke:none;stroke-width:1"
       id="Frame"
       x="4.1059322"
       y="14.097458"
       width="24"
       height="24"
       inkscape:label="Frame" />
    <path
       inkscape:label="Shape"
       style="fill:#000000;fill-opacity:1"
       inkscape:connector-curvature="0"
       id="Shape"
       d="m 19.105932,32.597458 c -2.51,0 -4.68,-1.42 -5.76,-3.5 h 5.76 v -2 h -6.42 c -0.05,-0.33 -0.08,-0.66 -0.08,-1 0,-0.34 0.03,-0.67 0.08,-1 h 6.42 v -2 h -5.76 c 1.08,-2.08 3.26,-3.5 5.76,-3.5 1.61,0 3.09,0.59 4.23,1.57 l 1.77,-1.77 c -1.59,-1.43 -3.7,-2.3 -6,-2.3 -3.92,0 -7.24,2.51 -8.48,6 H 7.1059322 v 2 h 3.0599998 c -0.04,0.33 -0.06,0.66 -0.06,1 0,0.34 0.02,0.67 0.06,1 H 7.1059322 v 2 h 3.5199998 c 1.24,3.49 4.56,6 8.48,6 2.31,0 4.41,-0.87 6,-2.3 l -1.78,-1.77 c -1.13,0.98 -2.6,1.57 -4.22,1.57 z" />
  </g>
</svg>
