<?xml version="1.0" encoding="UTF-8" standalone="no"?>
<svg
   xmlns:dc="http://purl.org/dc/elements/1.1/"
   xmlns:cc="http://creativecommons.org/ns#"
   xmlns:rdf="http://www.w3.org/1999/02/22-rdf-syntax-ns#"
   xmlns:svg="http://www.w3.org/2000/svg"
   xmlns="http://www.w3.org/2000/svg"
   xmlns:sodipodi="http://sodipodi.sourceforge.net/DTD/sodipodi-0.dtd"
   xmlns:inkscape="http://www.inkscape.org/namespaces/inkscape"
   width="18"
   height="18"
   viewBox="0 0 18 18"
   version="1.1"
   id="svg15"
   sodipodi:docname="euro-symbol.svg"
   inkscape:version="0.92.3 (2405546, 2018-03-11)"
   inkscape:export-filename="C:\Users\ncara\Desktop\fucina\euro_acquamarine.png"
   inkscape:export-xdpi="378.67001"
   inkscape:export-ydpi="378.67001">
  <metadata
     id="metadata19">
    <rdf:RDF>
      <cc:Work
         rdf:about="">
        <dc:format>image/svg+xml</dc:format>
        <dc:type
           rdf:resource="http://purl.org/dc/dcmitype/StillImage" />
        <dc:title>icon-euro</dc:title>
      </cc:Work>
    </rdf:RDF>
  </metadata>
  <sodipodi:namedview
     pagecolor="#ffffff"
     bordercolor="#666666"
     borderopacity="1"
     objecttolerance="10"
     gridtolerance="10"
     guidetolerance="10"
     inkscape:pageopacity="0"
     inkscape:pageshadow="2"
     inkscape:window-width="2736"
     inkscape:window-height="2510"
     id="namedview17"
     showgrid="false"
     inkscape:zoom="13.111111"
     inkscape:cx="7.1694916"
     inkscape:cy="7.0932202"
     inkscape:window-x="3430"
     inkscape:window-y="0"
     inkscape:window-maximized="0"
     inkscape:current-layer="icon-euro"
     fit-margin-top="0"
     fit-margin-left="0"
     fit-margin-right="0"
     fit-margin-bottom="0" />
  <!-- Generator: Sketch 46.2 (44496) - http://www.bohemiancoding.com/sketch -->
  <title
     id="title2">icon-euro</title>
  <desc
     id="desc4">Created with Sketch.</desc>
  <defs
     id="defs6" />
  <g
     id="-prototype-v0.1"
     style="fill:none;fill-rule:evenodd;stroke:none;stroke-width:1"
     inkscape:label="euro-symbol">
    <g
       id="icon-euro"
       transform="translate(-3,-3)"
       inkscape:label="icon">
      <path
         d="M 15,18.5 C 12.49,18.5 10.32,17.08 9.24,15 H 15 V 13 H 8.58 C 8.53,12.67 8.5,12.34 8.5,12 8.5,11.66 8.53,11.33 8.58,11 H 15 V 9 H 9.24 C 10.32,6.92 12.5,5.5 15,5.5 c 1.61,0 3.09,0.59 4.23,1.57 L 21,5.3 C 19.41,3.87 17.3,3 15,3 11.08,3 7.76,5.51 6.52,9 H 3 v 2 H 6.06 C 6.02,11.33 6,11.66 6,12 c 0,0.34 0.02,0.67 0.06,1 H 3 v 2 h 3.52 c 1.24,3.49 4.56,6 8.48,6 2.31,0 4.41,-0.87 6,-2.3 L 19.22,16.93 C 18.09,17.91 16.62,18.5 15,18.5 Z"
         id="path9"
         inkscape:connector-curvature="0"
         style="fill:#66dbdd;fill-opacity:1"
         inkscape:label="Path" />
    </g>
  </g>
</svg>
