<?xml version="1.0" encoding="UTF-8" standalone="no"?>
<svg
   xmlns:dc="http://purl.org/dc/elements/1.1/"
   xmlns:cc="http://creativecommons.org/ns#"
   xmlns:rdf="http://www.w3.org/1999/02/22-rdf-syntax-ns#"
   xmlns:svg="http://www.w3.org/2000/svg"
   xmlns="http://www.w3.org/2000/svg"
   xmlns:sodipodi="http://sodipodi.sourceforge.net/DTD/sodipodi-0.dtd"
   xmlns:inkscape="http://www.inkscape.org/namespaces/inkscape"
   width="24"
   height="17"
   viewBox="0 0 24 17"
   version="1.1"
   id="svg16"
   sodipodi:docname="location_online_white.svg"
   inkscape:version="0.92.3 (2405546, 2018-03-11)"
   inkscape:export-filename="C:\Users\ncara\Desktop\fucina\location_white.png"
   inkscape:export-xdpi="376"
   inkscape:export-ydpi="376">
  <metadata
     id="metadata20">
    <rdf:RDF>
      <cc:Work
         rdf:about="">
        <dc:format>image/svg+xml</dc:format>
        <dc:type
           rdf:resource="http://purl.org/dc/dcmitype/StillImage" />
        <dc:title>location_white</dc:title>
      </cc:Work>
    </rdf:RDF>
  </metadata>
  <sodipodi:namedview
     pagecolor="#ffffff"
     bordercolor="#666666"
     borderopacity="1"
     objecttolerance="10"
     gridtolerance="10"
     guidetolerance="10"
     inkscape:pageopacity="0"
     inkscape:pageshadow="2"
     inkscape:window-width="2494"
     inkscape:window-height="1824"
     id="namedview18"
     showgrid="false"
     fit-margin-top="0"
     fit-margin-left="0"
     fit-margin-right="0"
     fit-margin-bottom="0"
     inkscape:zoom="22.627417"
     inkscape:cx="-5.9972284"
     inkscape:cy="10.095045"
     inkscape:window-x="3201"
     inkscape:window-y="426"
     inkscape:window-maximized="0"
     inkscape:current-layer="svg16" />
  <!-- Generator: Sketch 46.2 (44496) - http://www.bohemiancoding.com/sketch -->
  <title
     id="title2">location_white</title>
  <desc
     id="desc4">Created with Sketch.</desc>
  <defs
     id="defs6" />
  <path
     style="fill:#ffffff;fill-opacity:0.99644763;stroke:none;stroke-width:1.69617295;stroke-miterlimit:4;stroke-dasharray:none"
     d="M 4.3940903,0 C 3.1287543,0 2.1118276,1.029898 2.1118276,2.308911 v 10.146535 c 0,1.279013 1.0169267,2.30891 2.2822627,2.30891 H 0 C 0.038022,16.009197 1.0353029,16.999999 2.2763856,17 H 21.723615 C 22.964698,17 23.961978,16.009197 24,14.764356 h -4.398008 c 1.265337,0 2.284221,-1.029897 2.284221,-2.30891 V 2.308911 C 21.886213,1.029898 20.867329,0 19.601992,0 Z M 4.1550894,1.883168 H 19.842952 c 0.0333,0 0.05877,0.02773 0.05877,0.06139 v 10.875247 c 0,0.03366 -0.02548,0.0594 -0.05877,0.0594 H 4.1550894 c -0.0333,0 -0.06073,-0.02575 -0.06073,-0.0594 V 1.944555 c 0,-0.03366 0.02743,-0.06139 0.06073,-0.06139 z M 11.999021,13.90891 a 1.146884,1.1592801 0 0 1 1.147988,1.158417 1.146884,1.1592801 0 0 1 -1.147988,1.160396 1.146884,1.1592801 0 0 1 -1.146029,-1.160396 1.146884,1.1592801 0 0 1 1.146029,-1.158417 z"
     id="location_online_white"
     inkscape:connector-curvature="0"
     inkscape:label="location_online_white"
     inkscape:export-filename="C:\Users\ncara\Desktop\fucina\location_online_white.png"
     inkscape:export-xdpi="376"
     inkscape:export-ydpi="376" />
</svg>
