<?xml version="1.0" encoding="UTF-8" standalone="no"?>
<svg
   xmlns:dc="http://purl.org/dc/elements/1.1/"
   xmlns:cc="http://creativecommons.org/ns#"
   xmlns:rdf="http://www.w3.org/1999/02/22-rdf-syntax-ns#"
   xmlns:svg="http://www.w3.org/2000/svg"
   xmlns="http://www.w3.org/2000/svg"
   xmlns:sodipodi="http://sodipodi.sourceforge.net/DTD/sodipodi-0.dtd"
   xmlns:inkscape="http://www.inkscape.org/namespaces/inkscape"
   width="24"
   height="24"
   viewBox="0 0 24 24"
   version="1.1"
   id="svg22"
   sodipodi:docname="logout_white.svg"
   inkscape:version="0.92.3 (2405546, 2018-03-11)"
   inkscape:export-filename="C:\Users\ncara\source\repos\18App\Artworks\Svg\logout_white.png"
   inkscape:export-xdpi="384"
   inkscape:export-ydpi="384">
  <metadata
     id="metadata26">
    <rdf:RDF>
      <cc:Work
         rdf:about="">
        <dc:format>image/svg+xml</dc:format>
        <dc:type
           rdf:resource="http://purl.org/dc/dcmitype/StillImage" />
        <dc:title>logout_white</dc:title>
      </cc:Work>
    </rdf:RDF>
  </metadata>
  <sodipodi:namedview
     pagecolor="#ffffff"
     bordercolor="#666666"
     borderopacity="1"
     objecttolerance="10"
     gridtolerance="10"
     guidetolerance="10"
     inkscape:pageopacity="0"
     inkscape:pageshadow="2"
     inkscape:window-width="2880"
     inkscape:window-height="1695"
     id="namedview24"
     showgrid="false"
     inkscape:zoom="10.727273"
     inkscape:cx="-18.449152"
     inkscape:cy="14.144067"
     inkscape:window-x="-13"
     inkscape:window-y="-13"
     inkscape:window-maximized="1"
     inkscape:current-layer="svg22"
     fit-margin-top="0"
     fit-margin-left="0"
     fit-margin-right="0"
     fit-margin-bottom="0" />
  <!-- Generator: Sketch 46.2 (44496) - http://www.bohemiancoding.com/sketch -->
  <title
     id="title2">logout_white</title>
  <defs
     id="defs6" />
  <g
     id="logout_white"
     style="fill:none;fill-rule:evenodd;stroke:none;stroke-width:1"
     transform="translate(20.504238,2.5847464)">
    <rect
       style="fill:none;stroke-width:0.93884009"
       id="Frame"
       width="24"
       height="24"
       x="-20.504238"
       y="-2.5847464" />
    <path
       style="opacity:1;fill:#ffffff"
       d="m -14.504238,-1.5847464 c -2.206762,0 -4,1.7953479 -4,4.0097656 V 16.405488 c 0,2.209206 1.791286,4.009766 4,4.009766 h 12 c 2.206762,0 4,-1.795348 4,-4.009766 v -1.990234 h -1 v 2.005859 c 0,1.653652 -1.352573,2.994141 -2.992188,2.994141 H -14.51205 c -1.652735,0 -2.992188,-1.343251 -2.992188,-2.994141 V 2.4093942 c 0,-1.6536522 1.352573,-2.9941406 2.992188,-2.9941406 h 12.015624 c 1.652734,0 2.992188,1.3432505 2.992188,2.9941406 v 2.0058594 h 1 V 2.4250192 c 0,-2.2092056 -1.791286,-4.0097656 -4,-4.0097656 z m 7,6 -1,1 3.949219,3.949219 -3.949219,3.9511724 1,1 4.949219,-4.9511724 z m -4,3 a 2,2 0 0 0 -2,2 2,2 0 0 0 2,2.0000004 2,2 0 0 0 2,-2.0000004 2,2 0 0 0 -2,-2 z"
       id="Shape"
       inkscape:connector-curvature="0" />
  </g>
</svg>
