<?xml version="1.0" encoding="UTF-8" standalone="no"?>
<svg
   xmlns:dc="http://purl.org/dc/elements/1.1/"
   xmlns:cc="http://creativecommons.org/ns#"
   xmlns:rdf="http://www.w3.org/1999/02/22-rdf-syntax-ns#"
   xmlns:svg="http://www.w3.org/2000/svg"
   xmlns="http://www.w3.org/2000/svg"
   xmlns:sodipodi="http://sodipodi.sourceforge.net/DTD/sodipodi-0.dtd"
   xmlns:inkscape="http://www.inkscape.org/namespaces/inkscape"
   width="80"
   height="64"
   viewBox="0 0 80 64"
   version="1.1"
   id="svg22"
   sodipodi:docname="nav-all.svg"
   inkscape:version="0.92.3 (2405546, 2018-03-11)">
  <metadata
     id="metadata26">
    <rdf:RDF>
      <cc:Work
         rdf:about="">
        <dc:format>image/svg+xml</dc:format>
        <dc:type
           rdf:resource="http://purl.org/dc/dcmitype/StillImage" />
        <dc:title>nav-nuovo</dc:title>
      </cc:Work>
    </rdf:RDF>
  </metadata>
  <sodipodi:namedview
     pagecolor="#ffffff"
     bordercolor="#666666"
     borderopacity="1"
     objecttolerance="10"
     gridtolerance="10"
     guidetolerance="10"
     inkscape:pageopacity="0"
     inkscape:pageshadow="2"
     inkscape:window-width="2736"
     inkscape:window-height="1719"
     id="namedview24"
     showgrid="false"
     fit-margin-top="0"
     fit-margin-left="0"
     fit-margin-right="0"
     fit-margin-bottom="0"
     inkscape:zoom="8"
     inkscape:cx="28.285128"
     inkscape:cy="32.853218"
     inkscape:window-x="613"
     inkscape:window-y="2867"
     inkscape:window-maximized="1"
     inkscape:current-layer="svg22"
     showguides="true"
     inkscape:guide-bbox="true"
     inkscape:snap-object-midpoints="true"
     inkscape:snap-midpoints="true"
     inkscape:snap-bbox="false"
     inkscape:bbox-paths="true"
     inkscape:bbox-nodes="true"
     inkscape:snap-bbox-edge-midpoints="true"
     inkscape:snap-bbox-midpoints="true">
    <sodipodi:guide
       position="49.755149,9.7916312"
       orientation="0,1"
       id="guide821"
       inkscape:locked="false" />
    <sodipodi:guide
       position="40,63.999996"
       orientation="1,0"
       id="guide901"
       inkscape:locked="false" />
  </sodipodi:namedview>
  <!-- Generator: Sketch 46.2 (44496) - http://www.bohemiancoding.com/sketch -->
  <title
     id="title2">nav-nuovo</title>
  <desc
     id="desc4">Created with Sketch.</desc>
  <rect
     style="display:inline;fill:#ffd42a;fill-opacity:1;stroke-width:0.51465321"
     id="rect31"
     width="80"
     height="64"
     x="0"
     y="3.8146973e-006"
     inkscape:label="Bkgnd"
     sodipodi:insensitive="true" />
  <defs
     id="defs6" />
  <g
     style="display:inline;fill:none;fill-rule:evenodd;stroke:none;stroke-width:1"
     id="navigation-new"
     transform="translate(8.559227e-7,0.20255345)"
     sodipodi:insensitive="true"
     inkscape:export-filename="C:\Users\ncara\Desktop\fucina\nav_nuovo.png"
     inkscape:export-xdpi="376"
     inkscape:export-ydpi="376">
    <text
       style="font-style:normal;font-variant:normal;font-weight:600;font-stretch:normal;font-size:14.66666698px;font-family:'Titillium Web';-inkscape-font-specification:'Titillium Web, Semi-Bold';font-variant-ligatures:normal;font-variant-caps:normal;font-variant-numeric:normal;font-feature-settings:normal;text-align:start;writing-mode:lr-tb;text-anchor:start;fill:#ffffff"
       font-weight="500"
       font-size="11"
       id="Nuovo"
       x="-1.9874164"
       y="16.838667">
      <tspan
         id="tspan9"
         y="53.838665"
         x="19.470905"
         style="font-style:normal;font-variant:normal;font-weight:600;font-stretch:normal;font-size:14.66666698px;font-family:'Titillium Web';-inkscape-font-specification:'Titillium Web, Semi-Bold';font-variant-ligatures:normal;font-variant-caps:normal;font-variant-numeric:normal;font-feature-settings:normal;text-align:start;writing-mode:lr-tb;text-anchor:start">Nuovo</tspan>
    </text>
    <g
       inkscape:label="new-icon"
       style="stroke:#ffffff"
       transform="translate(28,14)"
       id="Group-9">
      <circle
         r="11.5"
         cy="12"
         cx="12"
         id="Combined-Shape"
         inkscape:label="Circle"
         sodipodi:insensitive="true" />
      <rect
         style="stroke-width:2"
         height="1"
         width="8"
         y="11.5"
         x="8"
         id="Rectangle-Copy-3"
         inkscape:label="Horizontal-line" />
      <rect
         style="stroke-width:2"
         height="1"
         width="8"
         y="-12.5"
         x="8"
         transform="rotate(90)"
         id="rect14"
         inkscape:label="Vertical-line" />
    </g>
  </g>
  <g
     style="display:none;fill:none;fill-rule:evenodd;stroke:none;stroke-width:1"
     transform="translate(-1.2513332,0.35222458)"
     id="navigation-info"
     inkscape:export-filename="C:\Users\ncara\Desktop\fucina\nav_info.png"
     inkscape:export-xdpi="376"
     inkscape:export-ydpi="376">
    <text
       y="16.838665"
       x="3.2271671"
       style="font-style:normal;font-variant:normal;font-weight:600;font-stretch:normal;font-size:14.66666698px;font-family:'Titillium Web';-inkscape-font-specification:'Titillium Web, Semi-Bold';font-variant-ligatures:normal;font-variant-caps:normal;font-variant-numeric:normal;font-feature-settings:normal;text-align:start;writing-mode:lr-tb;text-anchor:start;fill:#ffffff"
       font-weight="500"
       font-size="11"
       id="Info">
      <tspan
         style="font-style:normal;font-variant:normal;font-weight:600;font-stretch:normal;font-size:14.66666698px;font-family:'Titillium Web';-inkscape-font-specification:'Titillium Web, Semi-Bold';font-variant-ligatures:normal;font-variant-caps:normal;font-variant-numeric:normal;font-feature-settings:normal;text-align:start;writing-mode:lr-tb;text-anchor:start"
         id="tspan9-4"
         y="53.838665"
         x="28.614166">Info</tspan>
    </text>
    <g
       inkscape:label="Icon-info"
       transform="translate(28,14)"
       id="Group-9-1"
       style="fill:#ffffff">
      <path
         inkscape:connector-curvature="0"
         id="Combined-Shape-9"
         d="M 13.251333,24 C 6.6239163,24 1.2513333,18.627417 1.2513333,12 c 0,-6.627417 5.372583,-12 11.9999997,-12 6.627417,0 12,5.372583 12,12 0,6.627417 -5.372583,12 -12,12 z m 0,-1 c 6.075132,0 11,-4.924868 11,-11 0,-6.0751323 -4.924868,-11 -11,-11 C 7.176201,1 2.2513333,5.9248677 2.2513333,12 c 0,6.075132 4.9248677,11 10.9999997,11 z m 2,-13 v 9 h -4 v -9 z m -2,-2 c -1.104569,0 -2,-0.8954305 -2,-2 0,-1.1045695 0.895431,-2 2,-2 1.10457,0 2,0.8954305 2,2 0,1.1045695 -0.89543,2 -2,2 z m 2,9 h 1 v 2 h -1 z m -5,0 h 1 v 2 h -1 z m 0,-7 h 1 v 2 h -1 z" />
    </g>
  </g>
  <g
     transform="translate(-1.001358e-7,0.21186528)"
     style="display:none;fill:none;fill-rule:evenodd;stroke:none;stroke-width:1"
     id="navigation-wallet"
     inkscape:export-filename="C:\Users\ncara\Desktop\fucina\nav_wallet.png"
     inkscape:export-xdpi="376"
     inkscape:export-ydpi="376">
    <text
       y="17.838667"
       id="I-tuoi-buoni"
       font-size="11"
       font-weight="500"
       style="font-style:normal;font-variant:normal;font-weight:600;font-stretch:normal;font-size:14.66666698px;font-family:'Titillium Web';-inkscape-font-specification:'Titillium Web, Semi-Bold';font-variant-ligatures:normal;font-variant-caps:normal;font-variant-numeric:normal;font-feature-settings:normal;text-align:start;writing-mode:lr-tb;text-anchor:start;fill:#ffffff"
       x="-5.5953021">
      <tspan
         x="4.8795209"
         y="53.838665"
         id="tspan16"
         style="font-style:normal;font-variant:normal;font-weight:600;font-stretch:normal;font-size:14.66666698px;font-family:'Titillium Web';-inkscape-font-specification:'Titillium Web, Semi-Bold';font-variant-ligatures:normal;font-variant-caps:normal;font-variant-numeric:normal;font-feature-settings:normal;text-align:start;writing-mode:lr-tb;text-anchor:start">I tuoi buoni</tspan>
    </text>
    <g
       id="wallet-icon"
       transform="matrix(0.9999021,0,0,1.0093229,28.00235,13.794868)">
      <path
         d="M 22.5,8.5 V 7.0001062 C 22.5,6.168325 21.830168,5.5 20.999136,5.5 H 2.0008642 C 1.1754967,5.5 0.5,6.1738892 0.5,7.0001062 V 19.999894 C 0.5,20.831675 1.169832,21.5 2.0008642,21.5 H 20.999136 C 21.824503,21.5 22.5,20.826111 22.5,19.999894 V 17.5 H 16.999615 C 15.616776,17.5 14.5,16.387107 14.5,15.001899 V 10.998101 C 14.5,9.6159483 15.613775,8.5 16.999615,8.5 Z m -6,2.490778 v 4.018444 C 16.5,15.275305 16.724954,15.5 16.99703,15.5 h 6.00594 C 23.274329,15.5 23.5,15.276773 23.5,15.009222 V 10.990778 C 23.5,10.724695 23.275046,10.5 23.00297,10.5 H 16.99703 C 16.72567,10.5 16.5,10.723227 16.5,10.990778 Z"
         id="Combined-Shape-7"
         inkscape:connector-curvature="0"
         style="stroke:#ffffff" />
      <rect
         id="Rectangle-5"
         x="16"
         y="10"
         width="8"
         height="6"
         rx="1"
         style="fill:#ffffff" />
      <path
         d="M 9.8809538,4 17.501914,1.9579698 c 1.062214,-0.2846193 2.153672,0.3443816 2.440974,1.4166054 L 20.11047,4 Z"
         id="path11"
         inkscape:connector-curvature="0"
         style="fill:#ffffff" />
      <path
         d="M 15.047298,1.7692199 14.940031,1.4897789 C 14.542226,0.45346004 13.390998,-0.05800663 12.364354,0.33608506 L 2.8195291,4 h 3.9023845 z"
         id="path13"
         inkscape:connector-curvature="0"
         style="fill:#ffffff" />
    </g>
  </g>
  <g
     style="display:none;fill:none;fill-rule:evenodd;stroke:none;stroke-width:1"
     transform="translate(-6.3112923,3.4556414)"
     id="navigation-stores"
     inkscape:export-filename="C:\Users\ncara\Desktop\fucina\nav_stores.png"
     inkscape:export-xdpi="376.79999"
     inkscape:export-ydpi="376.79999">
    <text
       style="font-style:normal;font-variant:normal;font-weight:600;font-stretch:normal;font-size:14.66666698px;font-family:'Titillium Web';-inkscape-font-specification:'Titillium Web, Semi-Bold';font-variant-ligatures:normal;font-variant-caps:normal;font-variant-numeric:normal;font-feature-settings:normal;text-align:start;writing-mode:lr-tb;text-anchor:start;fill:#ffffff"
       font-weight="500"
       font-size="11"
       id="Negozi"
       x="3.9999998"
       y="13.597333">
      <tspan
         style="font-style:normal;font-variant:normal;font-weight:600;font-stretch:normal;font-size:14.66666698px;font-family:'Titillium Web';-inkscape-font-specification:'Titillium Web, Semi-Bold';font-variant-ligatures:normal;font-variant-caps:normal;font-variant-numeric:normal;font-feature-settings:normal;text-align:start;writing-mode:lr-tb;text-anchor:start"
         id="tspan17"
         y="50.597332"
         x="24.683001">Negozi</tspan>
    </text>
    <g
       transform="matrix(1.0000086,0,0,0.99969826,37.311215,14)"
       id="icon-location">
      <path
         style="stroke:#ffffff"
         inkscape:connector-curvature="0"
         id="Oval-2"
         d="M 9.000486,23.314076 C 12.695687,19.770991 17.5,12.695315 17.5,9 17.5,4.3055796 13.69442,0.5 9,0.5 4.3055796,0.5 0.5,4.3055796 0.5,9 c 0,3.70957 4.7385617,10.700979 8.500486,14.314076 z" />
      <g
         id="Oval-5">
        <circle
           r="4"
           cy="9"
           cx="9"
           id="use11"
           style="fill:#ffffff;fill-rule:evenodd" />
        <circle
           style="stroke:#ffffff;stroke-width:2"
           id="circle13"
           r="3"
           cy="9"
           cx="9" />
      </g>
    </g>
  </g>
  <rect
     style="display:none;fill:none;fill-opacity:1;stroke:none"
     id="rect876"
     width="80"
     height="63.999996"
     x="0"
     y="3.8146973e-006"
     inkscape:label="Frame"
     sodipodi:insensitive="true"
     inkscape:export-filename="C:\Users\ncara\Desktop\fucina\nav_nuovo.png"
     inkscape:export-xdpi="376.79999"
     inkscape:export-ydpi="376.79999" />
</svg>
