<?xml version="1.0" encoding="UTF-8" standalone="no"?>
<svg
   xmlns:dc="http://purl.org/dc/elements/1.1/"
   xmlns:cc="http://creativecommons.org/ns#"
   xmlns:rdf="http://www.w3.org/1999/02/22-rdf-syntax-ns#"
   xmlns:svg="http://www.w3.org/2000/svg"
   xmlns="http://www.w3.org/2000/svg"
   xmlns:sodipodi="http://sodipodi.sourceforge.net/DTD/sodipodi-0.dtd"
   xmlns:inkscape="http://www.inkscape.org/namespaces/inkscape"
   width="80"
   height="64"
   viewBox="0 0 80 64"
   version="1.1"
   id="svg25"
   sodipodi:docname="nav_wallet.svg"
   inkscape:version="0.92.3 (2405546, 2018-03-11)">
  <metadata
     id="metadata29">
    <rdf:RDF>
      <cc:Work
         rdf:about="">
        <dc:format>image/svg+xml</dc:format>
        <dc:type
           rdf:resource="http://purl.org/dc/dcmitype/StillImage" />
        <dc:title>nav_wallet</dc:title>
      </cc:Work>
    </rdf:RDF>
  </metadata>
  <sodipodi:namedview
     pagecolor="#ffffff"
     bordercolor="#666666"
     borderopacity="1"
     objecttolerance="10"
     gridtolerance="10"
     guidetolerance="10"
     inkscape:pageopacity="0"
     inkscape:pageshadow="2"
     inkscape:window-width="3434"
     inkscape:window-height="2819"
     id="namedview27"
     showgrid="false"
     fit-margin-top="0"
     fit-margin-left="0"
     fit-margin-right="0"
     fit-margin-bottom="0"
     inkscape:zoom="9.0203892"
     inkscape:cx="16.40407"
     inkscape:cy="1.7753664"
     inkscape:window-x="-10"
     inkscape:window-y="0"
     inkscape:window-maximized="0"
     inkscape:current-layer="navigation-wallet" />
  <!-- Generator: Sketch 46.2 (44496) - http://www.bohemiancoding.com/sketch -->
  <title
     id="title2">nav_wallet</title>
  <desc
     id="desc4">Created with Sketch.</desc>
  <rect
     style="fill:#0066cc;stroke-width:0.51465321;fill-opacity:1"
     id="rect31"
     width="80"
     height="64"
     x="0"
     y="5.4397269e-015"
     inkscape:label="Bkgnd" />
  <defs
     id="defs6" />
  <g
     style="fill:none;fill-rule:evenodd;stroke:none;stroke-width:1"
     id="navigation-wallet">
    <text
       y="17.838667"
       id="I-tuoi-buoni"
       font-size="11"
       font-weight="500"
       style="font-style:normal;font-variant:normal;font-weight:600;font-stretch:normal;font-size:14.66666698px;font-family:'Titillium Web';-inkscape-font-specification:'Titillium Web, Semi-Bold';font-variant-ligatures:normal;font-variant-caps:normal;font-variant-numeric:normal;font-feature-settings:normal;text-align:start;writing-mode:lr-tb;text-anchor:start;fill:#ffffff"
       x="-5.5953021">
      <tspan
         x="4.8795209"
         y="53.838665"
         id="tspan16"
         style="font-style:normal;font-variant:normal;font-weight:600;font-stretch:normal;font-size:14.66666698px;font-family:'Titillium Web';-inkscape-font-specification:'Titillium Web, Semi-Bold';font-variant-ligatures:normal;font-variant-caps:normal;font-variant-numeric:normal;font-feature-settings:normal;text-align:start;writing-mode:lr-tb;text-anchor:start">I tuoi buoni</tspan>
    </text>
    <g
       id="wallet-icon"
       transform="matrix(0.9999021,0,0,1.0093229,28.00235,13.794868)">
      <path
         d="M 22.5,8.5 V 7.0001062 C 22.5,6.168325 21.830168,5.5 20.999136,5.5 H 2.0008642 C 1.1754967,5.5 0.5,6.1738892 0.5,7.0001062 V 19.999894 C 0.5,20.831675 1.169832,21.5 2.0008642,21.5 H 20.999136 C 21.824503,21.5 22.5,20.826111 22.5,19.999894 V 17.5 H 16.999615 C 15.616776,17.5 14.5,16.387107 14.5,15.001899 V 10.998101 C 14.5,9.6159483 15.613775,8.5 16.999615,8.5 Z m -6,2.490778 v 4.018444 C 16.5,15.275305 16.724954,15.5 16.99703,15.5 h 6.00594 C 23.274329,15.5 23.5,15.276773 23.5,15.009222 V 10.990778 C 23.5,10.724695 23.275046,10.5 23.00297,10.5 H 16.99703 C 16.72567,10.5 16.5,10.723227 16.5,10.990778 Z"
         id="Combined-Shape"
         inkscape:connector-curvature="0"
         style="stroke:#ffffff" />
      <rect
         id="Rectangle-5"
         x="16"
         y="10"
         width="8"
         height="6"
         rx="1"
         style="fill:#ffffff" />
      <path
         d="M 9.8809538,4 17.501914,1.9579698 c 1.062214,-0.2846193 2.153672,0.3443816 2.440974,1.4166054 L 20.11047,4 Z"
         id="path11"
         inkscape:connector-curvature="0"
         style="fill:#ffffff" />
      <path
         d="M 15.047298,1.7692199 14.940031,1.4897789 C 14.542226,0.45346004 13.390998,-0.05800663 12.364354,0.33608506 L 2.8195291,4 h 3.9023845 z"
         id="path13"
         inkscape:connector-curvature="0"
         style="fill:#ffffff" />
    </g>
  </g>
</svg>
