<?xml version="1.0" encoding="UTF-8" standalone="no"?>
<svg
   xmlns:dc="http://purl.org/dc/elements/1.1/"
   xmlns:cc="http://creativecommons.org/ns#"
   xmlns:rdf="http://www.w3.org/1999/02/22-rdf-syntax-ns#"
   xmlns:svg="http://www.w3.org/2000/svg"
   xmlns="http://www.w3.org/2000/svg"
   xmlns:sodipodi="http://sodipodi.sourceforge.net/DTD/sodipodi-0.dtd"
   xmlns:inkscape="http://www.inkscape.org/namespaces/inkscape"
   width="80"
   height="64"
   viewBox="0 0 80 64"
   version="1.1"
   id="svg19"
   sodipodi:docname="nav_info.svg"
   inkscape:version="0.92.3 (2405546, 2018-03-11)">
  <metadata
     id="metadata23">
    <rdf:RDF>
      <cc:Work
         rdf:about="">
        <dc:format>image/svg+xml</dc:format>
        <dc:type
           rdf:resource="http://purl.org/dc/dcmitype/StillImage" />
        <dc:title>nav_info</dc:title>
      </cc:Work>
    </rdf:RDF>
  </metadata>
  <sodipodi:namedview
     pagecolor="#ffffff"
     bordercolor="#666666"
     borderopacity="1"
     objecttolerance="10"
     gridtolerance="10"
     guidetolerance="10"
     inkscape:pageopacity="0"
     inkscape:pageshadow="2"
     inkscape:window-width="3434"
     inkscape:window-height="2819"
     id="namedview21"
     showgrid="false"
     fit-margin-top="0"
     fit-margin-left="0"
     fit-margin-right="0"
     fit-margin-bottom="0"
     inkscape:zoom="8.7830105"
     inkscape:cx="17.850563"
     inkscape:cy="35.902828"
     inkscape:window-x="3430"
     inkscape:window-y="0"
     inkscape:window-maximized="0"
     inkscape:current-layer="svg19" />
  <!-- Generator: Sketch 46.2 (44496) - http://www.bohemiancoding.com/sketch -->
  <title
     id="title2">nav_info</title>
  <desc
     id="desc4">Created with Sketch.</desc>
  <rect
     style="fill:#0066cc;stroke-width:0.832569;fill-opacity:1"
     id="rect25"
     width="80"
     height="64"
     x="3.5527137e-015"
     y="4.4408921e-016"
     inkscape:label="Bkgnd" />
  <defs
     id="defs6" />
  <g
     style="fill:none;fill-rule:evenodd;stroke:none;stroke-width:1"
     transform="translate(-1.251333)"
     id="navigation-info">
    <text
       y="16.838665"
       x="3.2271671"
       style="font-style:normal;font-variant:normal;font-weight:600;font-stretch:normal;font-size:14.66666698px;font-family:'Titillium Web';-inkscape-font-specification:'Titillium Web, Semi-Bold';font-variant-ligatures:normal;font-variant-caps:normal;font-variant-numeric:normal;font-feature-settings:normal;text-align:start;writing-mode:lr-tb;text-anchor:start;fill:#ffffff"
       font-weight="500"
       font-size="11"
       id="Info">
      <tspan
         style="font-style:normal;font-variant:normal;font-weight:600;font-stretch:normal;font-size:14.66666698px;font-family:'Titillium Web';-inkscape-font-specification:'Titillium Web, Semi-Bold';font-variant-ligatures:normal;font-variant-caps:normal;font-variant-numeric:normal;font-feature-settings:normal;text-align:start;writing-mode:lr-tb;text-anchor:start"
         id="tspan9"
         y="53.838665"
         x="28.614166">Info</tspan>
    </text>
    <g
       inkscape:label="Icon-info"
       transform="translate(28,14)"
       id="Group-9"
       style="fill:#ffffff">
      <path
         inkscape:connector-curvature="0"
         id="Combined-Shape"
         d="M 13.251333,24 C 6.6239163,24 1.2513333,18.627417 1.2513333,12 c 0,-6.627417 5.372583,-12 11.9999997,-12 6.627417,0 12,5.372583 12,12 0,6.627417 -5.372583,12 -12,12 z m 0,-1 c 6.075132,0 11,-4.924868 11,-11 0,-6.0751323 -4.924868,-11 -11,-11 C 7.176201,1 2.2513333,5.9248677 2.2513333,12 c 0,6.075132 4.9248677,11 10.9999997,11 z m 2,-13 v 9 h -4 v -9 z m -2,-2 c -1.104569,0 -2,-0.8954305 -2,-2 0,-1.1045695 0.895431,-2 2,-2 1.10457,0 2,0.8954305 2,2 0,1.1045695 -0.89543,2 -2,2 z m 2,9 h 1 v 2 h -1 z m -5,0 h 1 v 2 h -1 z m 0,-7 h 1 v 2 h -1 z" />
    </g>
  </g>
</svg>
