<?xml version="1.0" encoding="UTF-8" standalone="no"?>
<svg
   xmlns:dc="http://purl.org/dc/elements/1.1/"
   xmlns:cc="http://creativecommons.org/ns#"
   xmlns:rdf="http://www.w3.org/1999/02/22-rdf-syntax-ns#"
   xmlns:svg="http://www.w3.org/2000/svg"
   xmlns="http://www.w3.org/2000/svg"
   xmlns:sodipodi="http://sodipodi.sourceforge.net/DTD/sodipodi-0.dtd"
   xmlns:inkscape="http://www.inkscape.org/namespaces/inkscape"
   width="24"
   height="24"
   viewBox="0 0 24 24"
   version="1.1"
   id="svg14"
   sodipodi:docname="notification_white.svg"
   inkscape:version="0.92.3 (2405546, 2018-03-11)"
   inkscape:export-filename="C:\Users\ncara\source\repos\18App\Artworks\Svg\notification_white.png"
   inkscape:export-xdpi="384"
   inkscape:export-ydpi="384">
  <metadata
     id="metadata18">
    <rdf:RDF>
      <cc:Work
         rdf:about="">
        <dc:format>image/svg+xml</dc:format>
        <dc:type
           rdf:resource="http://purl.org/dc/dcmitype/StillImage" />
        <dc:title>notification_white</dc:title>
      </cc:Work>
    </rdf:RDF>
  </metadata>
  <sodipodi:namedview
     pagecolor="#ffffff"
     bordercolor="#666666"
     borderopacity="1"
     objecttolerance="10"
     gridtolerance="10"
     guidetolerance="10"
     inkscape:pageopacity="0"
     inkscape:pageshadow="2"
     inkscape:window-width="2880"
     inkscape:window-height="1695"
     id="namedview16"
     showgrid="false"
     fit-margin-top="0"
     fit-margin-left="0"
     fit-margin-right="0"
     fit-margin-bottom="0"
     inkscape:zoom="11.8"
     inkscape:cx="-23.271186"
     inkscape:cy="6.6101695"
     inkscape:window-x="-13"
     inkscape:window-y="-13"
     inkscape:window-maximized="1"
     inkscape:current-layer="svg14" />
  <!-- Generator: Sketch 46.2 (44496) - http://www.bohemiancoding.com/sketch -->
  <title
     id="title2">notification_white</title>
  <desc
     id="desc4">Created with Sketch.</desc>
  <defs
     id="defs6" />
  <g
     id="notification_white"
     transform="translate(0,4)"
     style="fill:none;stroke:none">
    <rect
       id="Frame"
       x="0"
       y="-4"
       width="24"
       height="24"
       style="stroke-width:0.5;fill:none;stroke:none" />
    <path
       d="m 12,18 c 1.65,0 3,-1.35 3,-3 H 9 c 0,1.65 1.335,3 3,3 z m 0,-1 c 1.1,0 2,-0.9 2,-2 h -4 c 0,1.1 0.89,2 2,2 z M 7.001532,6 H 7 v 7 H 17 V 6 H 16.9985 C 16.932128,3.227012 14.719635,1 12,1 9.280365,1 7.067872,3.227012 7.001532,6 Z M 18,10.846154 l 2,2.051282 v 1.025641 H 4 V 12.897436 L 6,10.846154 V 6.717949 C 6,3.558974 7.63,0.933333 10.5,0.235897 V -0.461538 C 10.5,-1.312821 11.17,-2 12,-2 c 0.83,0 1.5,0.687179 1.5,1.538462 V 0.235897 C 16.36,0.933333 18,3.569231 18,6.717949 Z M 7,11 5,13 h 2 z m 10,0 v 2 h 2 z"
       id="Shape"
       inkscape:connector-curvature="0"
       style="fill:#ffffff;stroke:none;fill-opacity:1" />
  </g>
</svg>
