<?xml version="1.0" encoding="UTF-8" standalone="no"?>
<svg
   xmlns:dc="http://purl.org/dc/elements/1.1/"
   xmlns:cc="http://creativecommons.org/ns#"
   xmlns:rdf="http://www.w3.org/1999/02/22-rdf-syntax-ns#"
   xmlns:svg="http://www.w3.org/2000/svg"
   xmlns="http://www.w3.org/2000/svg"
   xmlns:sodipodi="http://sodipodi.sourceforge.net/DTD/sodipodi-0.dtd"
   xmlns:inkscape="http://www.inkscape.org/namespaces/inkscape"
   width="24"
   height="24"
   viewBox="0 0 24 24"
   version="1.1"
   id="svg15"
   sodipodi:docname="prod_ticket.svg"
   inkscape:version="0.92.3 (2405546, 2018-03-11)"
   inkscape:export-filename="C:\Users\ncara\source\repos\18App\Artworks\Svg\prod_ticket.png"
   inkscape:export-xdpi="344"
   inkscape:export-ydpi="344">
  <metadata
     id="metadata19">
    <rdf:RDF>
      <cc:Work
         rdf:about="">
        <dc:format>image/svg+xml</dc:format>
        <dc:type
           rdf:resource="http://purl.org/dc/dcmitype/StillImage" />
        <dc:title>prod_ticket</dc:title>
      </cc:Work>
    </rdf:RDF>
  </metadata>
  <sodipodi:namedview
     pagecolor="#ffffff"
     bordercolor="#666666"
     borderopacity="1"
     objecttolerance="10"
     gridtolerance="10"
     guidetolerance="10"
     inkscape:pageopacity="0"
     inkscape:pageshadow="2"
     inkscape:window-width="2818"
     inkscape:window-height="2031"
     id="namedview17"
     showgrid="false"
     inkscape:zoom="12.421053"
     inkscape:cx="12"
     inkscape:cy="10.5"
     inkscape:window-x="0"
     inkscape:window-y="0"
     inkscape:window-maximized="0"
     inkscape:current-layer="prod_ticket"
     fit-margin-top="0"
     fit-margin-left="0"
     fit-margin-right="0"
     fit-margin-bottom="0" />
  <!-- Generator: Sketch 46.2 (44496) - http://www.bohemiancoding.com/sketch -->
  <title
     id="title2">prod_ticket</title>
  <desc
     id="desc4">Created with Sketch.</desc>
  <defs
     id="defs6" />
  <g
     style="fill:none;fill-rule:evenodd;stroke:none;stroke-width:1"
     id="prod_ticket"
     inkscape:label="prod_ticket">
    <rect
       inkscape:label="Frame"
       height="24"
       width="24"
       y="0"
       x="0"
       id="Frame" />
    <path
       style="fill:#0066cc"
       d="M 4,4 C 2.896,4 2,4.895 2,6 v 3 c 1.104,0 2,0.895 2,2 0,1.105 -0.896,2 -2,2 v 3 c 0,1.105 0.896,2 2,2 h 16 c 1.104,0 2,-0.895 2,-2 v -3 c -1.104,0 -2,-0.895 -2,-2 0,-1.105 0.896,-2 2,-2 V 6 C 22,4.895 21.104,4 20,4 Z m 0.125,15 14.90625,3.59375 c 1.074,0.259 2.14625,-0.39475 2.40625,-1.46875 L 21.96875,19 Z"
       id="Shape"
       inkscape:connector-curvature="0"
       inkscape:label="Shape" />
  </g>
</svg>
