<?xml version="1.0" encoding="UTF-8" standalone="no"?>
<svg
   xmlns:dc="http://purl.org/dc/elements/1.1/"
   xmlns:cc="http://creativecommons.org/ns#"
   xmlns:rdf="http://www.w3.org/1999/02/22-rdf-syntax-ns#"
   xmlns:svg="http://www.w3.org/2000/svg"
   xmlns="http://www.w3.org/2000/svg"
   xmlns:sodipodi="http://sodipodi.sourceforge.net/DTD/sodipodi-0.dtd"
   xmlns:inkscape="http://www.inkscape.org/namespaces/inkscape"
   width="24"
   height="24"
   viewBox="0 0 24 24"
   version="1.1"
   id="svg15"
   sodipodi:docname="prod_course_theatre.svg"
   inkscape:version="0.92.3 (2405546, 2018-03-11)"
   inkscape:export-filename="C:\Users\ncara\Desktop\fucina\prod_course_theatre.png"
   inkscape:export-xdpi="376"
   inkscape:export-ydpi="376">
  <metadata
     id="metadata19">
    <rdf:RDF>
      <cc:Work
         rdf:about="">
        <dc:format>image/svg+xml</dc:format>
        <dc:type
           rdf:resource="http://purl.org/dc/dcmitype/StillImage" />
        <dc:title>prod_course_theatre</dc:title>
      </cc:Work>
    </rdf:RDF>
  </metadata>
  <sodipodi:namedview
     pagecolor="#ffffff"
     bordercolor="#666666"
     borderopacity="1"
     objecttolerance="10"
     gridtolerance="10"
     guidetolerance="10"
     inkscape:pageopacity="0"
     inkscape:pageshadow="2"
     inkscape:window-width="1781"
     inkscape:window-height="1221"
     id="namedview17"
     showgrid="false"
     inkscape:zoom="8"
     inkscape:cx="16.576581"
     inkscape:cy="17.547366"
     inkscape:window-x="1606"
     inkscape:window-y="63"
     inkscape:window-maximized="0"
     inkscape:current-layer="svg15"
     fit-margin-top="0"
     fit-margin-left="0"
     fit-margin-right="0"
     fit-margin-bottom="0"
     showguides="true"
     inkscape:guide-bbox="true"
     inkscape:snap-global="true" />
  <!-- Generator: Sketch 46.2 (44496) - http://www.bohemiancoding.com/sketch -->
  <title
     id="title2">prod_course_theatre</title>
  <desc
     id="desc4">Created with Sketch.</desc>
  <defs
     id="defs6" />
  <g
     style="fill:none;fill-rule:evenodd;stroke:none;stroke-width:1"
     id="prod_course_theatre"
     inkscape:label="prod_course_theatre">
    <rect
       inkscape:label="Frame"
       height="24"
       width="24"
       y="0"
       x="0"
       id="Frame" />
    <path
       id="Shape"
       style="fill:#0066cc;fill-opacity:1;stroke:none;stroke-width:0.04609409px;stroke-linecap:butt;stroke-linejoin:miter;stroke-opacity:1"
       d="m 21.092019,11.041452 0.0066,2.411235 a 2.0702116,1.4903854 0 0 0 -0.214904,-0.0084 2.0702116,1.4903854 0 0 0 -2.070203,1.490306 l 0.0072,1.691565 a 2.0702116,1.4903854 0 0 0 2.070108,1.490307 2.0702116,1.4903854 0 0 0 0.220492,-0.01017 l 0.0031,1.132447 c 0.0057,2.07889 -5.401737,2.376218 -8.786177,3.569167 l 0.06736,-7.452125 c 0,-1.019769 0.150074,-1.895542 1.86513,-2.235628 1.868881,-0.370588 6.83123,-2.078777 6.83123,-2.078777 z m -0.206284,3.149242 a 1.1621512,1.0142293 0 0 1 1.162116,1.0142 1.1621512,1.0142293 0 0 1 -9.8e-5,0.002 h 0.0052 v 1.147502 h -10e-4 a 1.1621512,1.0142293 0 0 1 9.9e-5,0.0015 1.1621512,1.0142293 0 0 1 -1.162213,1.014199 1.1621512,1.0142293 0 0 1 -1.162117,-1.014199 l -0.0041,-1.151119 a 1.1621512,1.0142293 0 0 1 1.162117,-1.0142 z m -17.9777742,-3.149245 -0.00666,2.411235 a 2.0702116,1.4903854 0 0 1 0.2149035,-0.0084 2.0702116,1.4903854 0 0 1 2.0702043,1.490307 l -0.00723,1.691566 a 2.0702116,1.4903854 0 0 1 -2.070107,1.490306 2.0702116,1.4903854 0 0 1 -0.2204932,-0.01018 l -0.00306,1.132448 c -0.00574,2.07889 5.401711,2.376219 8.7861496,3.569167 l -0.06736,-7.452129 c 0,-1.019768 -0.150073,-1.895542 -1.8651291,-2.235628 -1.8688804,-0.370534 -6.831229,-2.078722 -6.831229,-2.078722 z m 0.2062843,3.149242 a 1.1621512,1.0142293 0 0 0 -1.162117,1.014199 1.1621512,1.0142293 0 0 0 9.86e-5,0.002 h -0.00518 v 1.147503 h 0.00106 a 1.1621512,1.0142293 0 0 0 -9.92e-5,0.0015 1.1621512,1.0142293 0 0 0 1.1622131,1.014199 1.1621512,1.0142293 0 0 0 1.1621171,-1.014199 l 0.00406,-1.151119 A 1.1621512,1.0142293 0 0 0 3.1142794,14.19063 Z M 12.010905,1.1920933 v 0.0029 C 10.067306,1.268788 8.2528374,1.5620234 8.2528374,1.5620234 7.5478394,1.579561 6.6945976,2.137809 6.7686205,3.0871839 l -0.049724,4.7030572 c 0,2.6574379 3.4517585,3.5658169 5.3139355,5.4279929 1.861285,-1.876023 5.313936,-2.767965 5.313936,-5.4279929 l -0.04825,-4.7030572 c 0.07402,-0.9493749 -0.780681,-1.5076281 -1.485679,-1.5251605 0,0 -1.813006,-0.293232 -3.756606,-0.3670328 v -0.0029 c -0.0076,2.736e-4 -0.01437,0.00119 -0.02193,0.00153 -0.0081,-2.991e-4 -0.01532,-0.00119 -0.02339,-0.00153 z m 0.02194,1.864411 v 4.8072095 l -2.3762097,0.039481 c 0.5066197,0.8409337 1.5242867,1.4844543 2.3762097,1.500302 V 10.811674 C 11.819836,10.741916 11.073741,10.511889 10.077767,9.8992103 9.0959014,9.2952019 8.2381323,8.4864731 8.0261853,7.5288501 7.9957818,7.3920643 7.9709021,7.2534471 7.9691602,7.1106373 7.9965309,5.2824372 7.9516125,3.0579658 7.9516125,3.0579658 Z M 10.01489,4.7867397 C 9.933739,4.7822197 9.8453622,4.7890397 9.7677642,4.8072087 9.224546,4.933714 8.7836483,5.531038 8.7836483,5.531038 c 0,0 0.5747217,0.8212896 1.2093074,0.7837842 0.6492103,0.036055 1.2063833,-0.7399156 1.2063833,-0.7399156 0,0 -0.549865,-0.8256741 -1.184449,-0.7881703 z m 4.705626,0.00733 c 0.552116,-0.036353 1.039553,0.6235919 1.118647,0.736991 l 0.0044,0.023392 -0.01316,0.051181 c -0.08236,0.102453 -0.575068,0.6802173 -1.125958,0.7165178 -0.602306,0.039685 -1.123033,-0.7603864 -1.123033,-0.7603864 0,0 0.389905,-0.6188701 0.905152,-0.7472264 v 0.00153 c 0.07367,-0.017989 0.156881,-0.026306 0.233966,-0.021935 z"
       inkscape:connector-curvature="0"
       inkscape:label="Shape" />
  </g>
</svg>
