<?xml version="1.0" encoding="UTF-8" standalone="no"?>
<svg
   xmlns:dc="http://purl.org/dc/elements/1.1/"
   xmlns:cc="http://creativecommons.org/ns#"
   xmlns:rdf="http://www.w3.org/1999/02/22-rdf-syntax-ns#"
   xmlns:svg="http://www.w3.org/2000/svg"
   xmlns="http://www.w3.org/2000/svg"
   xmlns:sodipodi="http://sodipodi.sourceforge.net/DTD/sodipodi-0.dtd"
   xmlns:inkscape="http://www.inkscape.org/namespaces/inkscape"
   width="24"
   height="24"
   viewBox="0 0 24 24"
   version="1.1"
   id="svg15"
   sodipodi:docname="prod_audiobook.svg"
   inkscape:version="0.92.3 (2405546, 2018-03-11)"
   inkscape:export-filename="C:\Users\ncara\Desktop\fucina\prod_audiobook.png"
   inkscape:export-xdpi="376"
   inkscape:export-ydpi="376">
  <metadata
     id="metadata19">
    <rdf:RDF>
      <cc:Work
         rdf:about="">
        <dc:format>image/svg+xml</dc:format>
        <dc:type
           rdf:resource="http://purl.org/dc/dcmitype/StillImage" />
        <dc:title>prod_audiobook</dc:title>
      </cc:Work>
    </rdf:RDF>
  </metadata>
  <sodipodi:namedview
     pagecolor="#ffffff"
     bordercolor="#666666"
     borderopacity="1"
     objecttolerance="10"
     gridtolerance="10"
     guidetolerance="10"
     inkscape:pageopacity="0"
     inkscape:pageshadow="2"
     inkscape:window-width="1380"
     inkscape:window-height="922"
     id="namedview17"
     showgrid="false"
     inkscape:zoom="11.313709"
     inkscape:cx="13.793709"
     inkscape:cy="12.388884"
     inkscape:window-x="840"
     inkscape:window-y="121"
     inkscape:window-maximized="0"
     inkscape:current-layer="svg15"
     fit-margin-top="0"
     fit-margin-left="0"
     fit-margin-right="0"
     fit-margin-bottom="0"
     showguides="true"
     inkscape:guide-bbox="true"
     inkscape:object-paths="true"
     inkscape:snap-intersection-paths="true"
     inkscape:snap-bbox="true"
     inkscape:snap-global="true"
     inkscape:snap-bbox-midpoints="true"
     inkscape:snap-bbox-edge-midpoints="true"
     inkscape:bbox-nodes="true"
     inkscape:bbox-paths="true"
     inkscape:snap-smooth-nodes="true"
     inkscape:snap-object-midpoints="true"
     inkscape:snap-center="true"
     inkscape:lockguides="false" />
  <!-- Generator: Sketch 46.2 (44496) - http://www.bohemiancoding.com/sketch -->
  <title
     id="title2">prod_audiobook</title>
  <desc
     id="desc4">Created with Sketch.</desc>
  <defs
     id="defs6" />
  <g
     style="fill:none;fill-rule:evenodd;stroke:none;stroke-width:1"
     id="prod_audiobook"
     inkscape:label="prod_audiobook">
    <rect
       id="Frame"
       x="0"
       y="0"
       width="24"
       height="24"
       inkscape:label="Frame"
       style="display:inline" />
    <path
       style="display:inline;fill:#0271d2;fill-rule:evenodd;stroke:none;stroke-width:0.79671568"
       d="M 11.976562,2.1738719 C 6.7616504,2.1517748 2.1660157,6.3068083 2.1660157,12.007857 l 0.042969,5.36914 h 1.8769531 c 0.6682743,0 1.7070313,-0.450593 1.7070313,-1.294922 v -2.710937 c 0,-0.687188 -0.6892138,-1.363281 -1.7070313,-1.363281 0.042918,-4.5520007 3.9573431,-7.9550788 7.8906242,-7.9550788 3.977475,0 7.9375,3.3809807 7.9375,7.9550788 -1.020257,-10e-7 -1.707031,0.668888 -1.707031,1.363281 v 2.724609 c 0,0.841785 0.867343,1.28125 1.707031,1.28125 h 1.919922 v -5.36914 c 0,-5.7021882 -5.002828,-9.8450331 -9.857422,-9.8339851 z M 8.1992189,7.62895 c -0.7509677,0 -1.5195313,0.8448359 -1.5195313,1.6699219 V 19.320357 c 0,1.37413 1.0286057,2.505859 2.2792969,2.505859 H 17.320312 V 20.156294 H 8.9589845 c -0.4215034,0 -0.7597656,-0.372834 -0.7597656,-0.835937 0,-0.463105 0.3382622,-0.835938 0.7597656,-0.835938 H 17.320312 V 17.650435 16.814497 7.62895 Z m 1.078125,2.683594 h 5.3203121 v 1.669922 H 9.2773439 Z"
       id="Shape"
       inkscape:connector-curvature="0"
       inkscape:label="Shape" />
  </g>
</svg>
