<?xml version="1.0" encoding="UTF-8" standalone="no"?>
<svg
   xmlns:dc="http://purl.org/dc/elements/1.1/"
   xmlns:cc="http://creativecommons.org/ns#"
   xmlns:rdf="http://www.w3.org/1999/02/22-rdf-syntax-ns#"
   xmlns:svg="http://www.w3.org/2000/svg"
   xmlns="http://www.w3.org/2000/svg"
   xmlns:sodipodi="http://sodipodi.sourceforge.net/DTD/sodipodi-0.dtd"
   xmlns:inkscape="http://www.inkscape.org/namespaces/inkscape"
   width="24"
   height="24"
   viewBox="0 0 24 24"
   version="1.1"
   id="svg15"
   sodipodi:docname="prod_course_lng.svg"
   inkscape:version="0.92.3 (2405546, 2018-03-11)"
   inkscape:export-filename="C:\Users\ncara\Desktop\fucina\prod_ticket.png"
   inkscape:export-xdpi="376"
   inkscape:export-ydpi="376">
  <metadata
     id="metadata19">
    <rdf:RDF>
      <cc:Work
         rdf:about="">
        <dc:format>image/svg+xml</dc:format>
        <dc:type
           rdf:resource="http://purl.org/dc/dcmitype/StillImage" />
        <dc:title>prod_course_lng</dc:title>
      </cc:Work>
    </rdf:RDF>
  </metadata>
  <sodipodi:namedview
     pagecolor="#ffffff"
     bordercolor="#666666"
     borderopacity="1"
     objecttolerance="10"
     gridtolerance="10"
     guidetolerance="10"
     inkscape:pageopacity="0"
     inkscape:pageshadow="2"
     inkscape:window-width="1629"
     inkscape:window-height="1378"
     id="namedview17"
     showgrid="false"
     inkscape:zoom="17.566022"
     inkscape:cx="19.258677"
     inkscape:cy="4.8735617"
     inkscape:window-x="1590"
     inkscape:window-y="0"
     inkscape:window-maximized="0"
     inkscape:current-layer="prod_course_lng"
     fit-margin-top="0"
     fit-margin-left="0"
     fit-margin-right="0"
     fit-margin-bottom="0"
     showguides="true"
     inkscape:guide-bbox="true" />
  <!-- Generator: Sketch 46.2 (44496) - http://www.bohemiancoding.com/sketch -->
  <title
     id="title2">prod_course_lng</title>
  <desc
     id="desc4">Created with Sketch.</desc>
  <defs
     id="defs6" />
  <g
     style="fill:none;fill-rule:evenodd;stroke:none;stroke-width:1"
     id="prod_course_lng"
     inkscape:label="prod_course_lng"
     inkscape:export-filename="C:\Users\ncara\Desktop\fucina\prod_course_lng.png"
     inkscape:export-xdpi="376"
     inkscape:export-ydpi="376">
    <rect
       inkscape:label="Frame"
       height="24"
       width="24"
       y="0"
       x="0"
       id="Frame"
       sodipodi:insensitive="true" />
    <path
       id="Shape"
       style="display:inline;fill:#0066cc;fill-opacity:1;stroke:none;stroke-width:0.09146451px;stroke-linecap:butt;stroke-linejoin:miter;stroke-opacity:1"
       d="m 15.868623,4.220654 c -2.961403,0 -5.308434,2.3995362 -5.064811,5.673755 0.113939,1.53129 1.908361,5.53268 6.379474,4.905742 0.442826,0.720979 1.951154,1.990623 3.431855,1.583114 -1.497437,-1.23324 -1.176179,-2.539216 -1.176179,-2.539216 0,0 2.214046,-1.238195 2.214046,-3.949703 0,-4.0750983 -3.708637,-5.673692 -5.784385,-5.673692 z m -0.0376,1.8355878 v 1.0163717 c 0.725176,0.016751 2.417825,-0.2657857 2.417825,-0.2657857 v 0.9089556 c 0,0 -1.571409,0.2711067 -2.417825,0.2840378 v 0.6895561 c 0.138164,-0.021123 0.279853,-0.033084 0.425183,-0.033084 0.206349,0 0.396509,0.00985 0.573738,0.027387 0.03387,-0.1140881 0.0652,-0.227953 0.09048,-0.3408824 l 0.72649,0.1802315 c -0.01755,0.0919 -0.04273,0.1946293 -0.07168,0.301907 1.218275,0.3684682 1.437367,1.2636946 1.437367,1.9015616 0,1.395395 -0.971246,1.793273 -1.815384,2.169434 l -0.345953,-0.775874 c 0.387474,-0.188081 1.300731,-0.674001 1.300731,-1.379308 0,-0.477608 -0.280169,-0.89714 -0.847178,-1.1283494 -0.264227,0.6439134 -0.657318,1.3560524 -1.156373,1.9084034 0.08935,0.365589 0.162988,0.630624 0.162988,0.630624 l -0.722124,0.486891 c 0,0 -0.06796,-0.201317 -0.156443,-0.502862 -0.333355,0.208436 -0.696882,0.332844 -1.086378,0.329476 -0.940979,-0.008 -1.065562,-0.83071 -1.065562,-1.206872 0,-0.744754 0.659402,-1.7776854 1.679084,-2.2890204 l -0.0049,-0.9692182 h -1.365004 v -0.92721 h 1.36502 V 6.0617543 Z m 0.466643,3.3679418 c -0.08737,1.95e-4 -0.258682,0.03185 -0.466643,0.09525 v 0.268826 c 0.01533,0.2121864 0.05186,0.4599224 0.09752,0.7131324 0.23507,-0.31695 0.447175,-0.6801684 0.6199,-1.0621874 -0.08074,-0.0074 -0.163846,-0.01283 -0.250782,-0.01502 z M 14.9825,9.903852 c -0.449891,0.283438 -0.835433,0.697141 -0.829723,1.260102 0,0.446694 0.200584,0.407613 0.373485,0.407613 0.226057,-0.04042 0.454377,-0.152173 0.676301,-0.316736 -0.09714,-0.4251 -0.183122,-0.898528 -0.220063,-1.350979 z M 10.119641,7.2602965 C 6.0629006,7.1812144 2.3469919,9.1298346 2.3469919,13.373124 c 0,1.744543 1.406478,3.275423 2.270111,3.812438 0.06144,1.381192 -0.57309,1.892255 -1.095944,2.515834 0.605732,0.245499 2.241349,-0.03818 3.405334,-1.584824 0.704533,0 3.9706471,0.461351 6.1842241,-3.280488 C 10.446448,13.442756 9.3100189,10.283806 10.119641,7.2602965 Z M 6.9983359,9.5496616 h 1.383821 L 10.05654,16.132497 H 8.8249679 l -0.387415,-1.739769 h -1.536069 l -0.359888,1.739769 h -1.148484 z m 0.677978,1.0971694 -0.622585,2.774203 h 1.203878 z"
       inkscape:connector-curvature="0"
       sodipodi:nodetypes="sscccssccccccsccccsccscccccssccccccccccccccccccccccccccccccccccccccc"
       inkscape:label="Shape" />
    <path
       id="AlternativeShape_NotUsed"
       style="display:none;fill:#0066cc;fill-opacity:1;fill-rule:evenodd;stroke:none;stroke-width:0.06783801px;stroke-linecap:butt;stroke-linejoin:miter;stroke-opacity:1"
       d="m 16.224208,9.846118 c -2.291,0 -4.10671,1.706242 -3.918238,4.034446 0.08815,1.088857 1.476346,3.934133 4.935287,3.488335 0.342579,0.512667 1.509452,1.415475 2.654951,1.125707 -1.158446,-0.876922 -0.909915,-1.805564 -0.909915,-1.805564 0,0 1.71283,-0.880446 1.71283,-2.808523 0,-2.897686 -2.869076,-4.034401 -4.474915,-4.034401 z m -0.02909,1.305234 v 0.722714 c 0.561011,0.01191 1.870478,-0.188994 1.870478,-0.188994 v 0.646333 c 0,0 -1.215673,0.192777 -1.870478,0.201971 V 13.0237 c 0.106887,-0.01502 0.216501,-0.02352 0.32893,-0.02352 0.159636,0 0.306748,0.0071 0.443855,0.01947 0.02621,-0.08112 0.05044,-0.162091 0.07,-0.242393 l 0.562027,0.128158 c -0.01358,0.06535 -0.03306,0.138396 -0.05545,0.214678 0.942481,0.262007 1.111975,0.898577 1.111975,1.352147 0,0.992225 -0.751375,1.275145 -1.404416,1.542623 l -0.267637,-0.551702 c 0.299757,-0.133739 1.006272,-0.479263 1.006272,-0.980787 0,-0.339613 -0.216744,-0.637931 -0.655394,-0.802338 -0.204411,0.45787 -0.508514,0.964251 -0.894594,1.357012 0.06912,0.25996 0.126092,0.44842 0.126092,0.44842 l -0.55865,0.346214 c 0,0 -0.05258,-0.143151 -0.121027,-0.357571 -0.25789,0.148213 -0.539122,0.236676 -0.840444,0.234281 -0.72796,-0.0057 -0.82434,-0.590695 -0.82434,-0.858173 0,-0.529573 0.510127,-1.264062 1.298973,-1.627658 l -0.0038,-0.689183 h -1.055994 v -0.659313 h 1.056006 v -0.718792 z m 0.361005,2.394848 c -0.06759,1.39e-4 -0.200122,0.02265 -0.361005,0.06773 v 0.191154 c 0.01186,0.15088 0.04012,0.327038 0.07544,0.507089 0.181855,-0.225374 0.345943,-0.483649 0.479567,-0.755292 -0.06247,-0.0052 -0.126755,-0.0091 -0.19401,-0.01068 z m -1.017438,0.341079 c -0.348045,0.201545 -0.646308,0.495718 -0.641891,0.896023 0,0.317632 0.155176,0.289842 0.288936,0.289842 0.174882,-0.02874 0.351514,-0.108206 0.523199,-0.225222 -0.07515,-0.302277 -0.141666,-0.638918 -0.170244,-0.960643 z M 11.77668,12.007521 c -3.1383735,-0.05623 -6.0130743,1.329376 -6.0130743,4.346659 0,1.240495 1.0880793,2.329061 1.7562028,2.710917 0.047531,0.982126 -0.4433537,1.345529 -0.8478439,1.788938 0.4686063,0.174568 1.7339519,-0.02715 2.6344338,-1.126923 0.5450407,0 3.0717706,0.328053 4.7842376,-2.332662 -2.061131,-0.990756 -2.940295,-3.236997 -2.313956,-5.386929 z m -2.4147005,1.627903 h 1.0705515 l 1.295335,4.680868 h -0.952768 l -0.299713,-1.2371 H 9.2870521 l -0.2784165,1.2371 h -0.88849 z M 9.8864771,14.41559 9.4048326,16.388248 H 10.336175 Z M 11.995468,2.992984 c -0.207355,0.0057 -0.440839,0.06267 -0.751874,0.176317 C 10.621523,3.396597 1.9127481,6.305973 1.9127481,6.305973 1.4591555,6.487809 1.303405,6.87436 1.8088378,7.033467 c 0.2179752,0.06861 1.7108718,0.565772 2.8714848,0.951225 -0.00681,0.01162 -0.013964,0.02651 -0.020269,0.03704 -0.6739094,0.972521 -0.7260769,1.503464 -0.8256457,1.930361 -0.099564,0.426898 -0.1297298,1.130592 -0.2371152,1.331508 -0.1073869,0.200916 -0.4539501,0.735168 -0.4409873,1.068275 0.012966,0.333108 0.3735091,0.72724 0.4671758,0.920852 0.093665,0.193613 0.1001312,0.380011 0.064211,0.613408 -0.035919,0.233395 -0.5313801,6.091138 -0.5313801,6.636649 0,0.545509 0.3527984,0.471383 0.6074122,0.480798 0.2546137,0.0094 1.06138,4.87e-4 1.4150457,-0.01259 C 5.5324349,20.977903 5.4375667,20.68144 5.424607,20.442779 5.4116409,20.204116 5.1002218,14.30687 5.0613412,13.909102 5.0224591,13.511335 5.0486306,13.284143 5.1263949,13.170496 5.2041568,13.056847 5.4328427,12.836959 5.4896597,12.488191 5.5544581,12.090426 5.3189976,11.632547 5.2041166,11.453993 5.0892364,11.275438 5.032903,11.107969 5.0725796,10.622915 5.1122586,10.137861 5.7751795,9.030659 6.3543152,8.594863 c 2.404968,0.799449 4.4456938,1.42203 4.9408278,1.575276 0.881267,0.272754 0.622556,0.227295 1.348305,0 0.725749,-0.227295 8.501189,-2.864185 9.226935,-3.09148 0.725753,-0.227293 0.829282,-0.636778 0.31089,-0.818614 C 21.662873,6.078211 13.005777,3.305213 12.591064,3.123377 12.383707,3.032457 12.202833,2.987309 11.995475,2.992991 Z"
       inkscape:connector-curvature="0"
       sodipodi:nodetypes="sccccssccccccsccccsccsccccccsccccccccccccccccccccscccccccccccccccccccccccccccccsccccccccccsccccc"
       inkscape:label="AlternativeShape_NotUsed" />
  </g>
</svg>
