<?xml version="1.0" encoding="UTF-8" standalone="no"?>
<svg
   xmlns:dc="http://purl.org/dc/elements/1.1/"
   xmlns:cc="http://creativecommons.org/ns#"
   xmlns:rdf="http://www.w3.org/1999/02/22-rdf-syntax-ns#"
   xmlns:svg="http://www.w3.org/2000/svg"
   xmlns="http://www.w3.org/2000/svg"
   xmlns:sodipodi="http://sodipodi.sourceforge.net/DTD/sodipodi-0.dtd"
   xmlns:inkscape="http://www.inkscape.org/namespaces/inkscape"
   width="20px"
   height="19px"
   viewBox="0 0 20 19"
   version="1.1"
   id="svg15"
   sodipodi:docname="prod_subscription_gray.svg"
   inkscape:version="0.92.3 (2405546, 2018-03-11)">
  <metadata
     id="metadata19">
    <rdf:RDF>
      <cc:Work
         rdf:about="">
        <dc:format>image/svg+xml</dc:format>
        <dc:type
           rdf:resource="http://purl.org/dc/dcmitype/StillImage" />
        <dc:title>icon-gift</dc:title>
      </cc:Work>
    </rdf:RDF>
  </metadata>
  <sodipodi:namedview
     pagecolor="#ffffff"
     bordercolor="#666666"
     borderopacity="1"
     objecttolerance="10"
     gridtolerance="10"
     guidetolerance="10"
     inkscape:pageopacity="0"
     inkscape:pageshadow="2"
     inkscape:window-width="2870"
     inkscape:window-height="2165"
     id="namedview17"
     showgrid="false"
     inkscape:zoom="12.421053"
     inkscape:cx="-8.7987288"
     inkscape:cy="9.5"
     inkscape:window-x="3316"
     inkscape:window-y="342"
     inkscape:window-maximized="0"
     inkscape:current-layer="prod_sbscription_gray" />
  <!-- Generator: Sketch 46.2 (44496) - http://www.bohemiancoding.com/sketch -->
  <title
     id="title2">icon-gift</title>
  <desc
     id="desc4">Created with Sketch.</desc>
  <defs
     id="defs6" />
  <g
     style="fill:none;fill-rule:evenodd;stroke:none;stroke-width:1"
     id="prod_sbscription_gray"
     transform="translate(-2,-2)"
     inkscape:label="prod_sbscription_gray">
    <polygon
       points="24,24 0,24 0,0 24,0 "
       id="Frame"
       inkscape:label="Frame" />
    <path
       style="fill:#30373d"
       inkscape:connector-curvature="0"
       id="Shape"
       d="M 20,6 H 17.82 C 17.93,5.69 18,5.35 18,5 18,3.34 16.66,2 15,2 13.95,2 13.04,2.54 12.5,3.35 L 12,4.02 11.5,3.34 C 10.96,2.54 10.05,2 9,2 7.34,2 6,3.34 6,5 6,5.35 6.07,5.69 6.18,6 H 4 C 2.89,6 2.01,6.89 2.01,8 L 2,19 c 0,1.11 0.89,2 2,2 h 16 c 1.11,0 2,-0.89 2,-2 V 8 C 22,6.89 21.11,6 20,6 Z M 15,4 c 0.55,0 1,0.45 1,1 0,0.55 -0.45,1 -1,1 C 14.45,6 14,5.55 14,5 14,4.45 14.45,4 15,4 Z M 9,4 C 9.55,4 10,4.45 10,5 10,5.55 9.55,6 9,6 8.45,6 8,5.55 8,5 8,4.45 8.45,4 9,4 Z M 20,19 H 4 v -2 h 16 z m 0,-5 H 4 V 8 H 9.08 L 7,10.83 8.62,12 11,8.76 12,7.4 13,8.76 15.38,12 17,10.83 14.92,8 H 20 Z"
       inkscape:label="Shape" />
  </g>
</svg>
