<?xml version="1.0" encoding="UTF-8" standalone="no"?>
<svg
   xmlns:dc="http://purl.org/dc/elements/1.1/"
   xmlns:cc="http://creativecommons.org/ns#"
   xmlns:rdf="http://www.w3.org/1999/02/22-rdf-syntax-ns#"
   xmlns:svg="http://www.w3.org/2000/svg"
   xmlns="http://www.w3.org/2000/svg"
   xmlns:sodipodi="http://sodipodi.sourceforge.net/DTD/sodipodi-0.dtd"
   xmlns:inkscape="http://www.inkscape.org/namespaces/inkscape"
   width="24"
   height="24"
   viewBox="0 0 24 24"
   version="1.1"
   id="svg15"
   sodipodi:docname="prod_music.svg"
   inkscape:version="0.92.3 (2405546, 2018-03-11)"
   inkscape:export-filename="C:\Users\ncara\Desktop\fucina\prod_music.png"
   inkscape:export-xdpi="376"
   inkscape:export-ydpi="376">
  <metadata
     id="metadata19">
    <rdf:RDF>
      <cc:Work
         rdf:about="">
        <dc:format>image/svg+xml</dc:format>
        <dc:type
           rdf:resource="http://purl.org/dc/dcmitype/StillImage" />
        <dc:title>prod_music</dc:title>
      </cc:Work>
    </rdf:RDF>
  </metadata>
  <sodipodi:namedview
     pagecolor="#ffffff"
     bordercolor="#666666"
     borderopacity="1"
     objecttolerance="10"
     gridtolerance="10"
     guidetolerance="10"
     inkscape:pageopacity="0"
     inkscape:pageshadow="2"
     inkscape:window-width="1604"
     inkscape:window-height="955"
     id="namedview17"
     showgrid="false"
     inkscape:zoom="17.566021"
     inkscape:cx="15.952362"
     inkscape:cy="8.978946"
     inkscape:window-x="1543"
     inkscape:window-y="294"
     inkscape:window-maximized="0"
     inkscape:current-layer="svg15"
     fit-margin-top="0"
     fit-margin-left="0"
     fit-margin-right="0"
     fit-margin-bottom="0"
     inkscape:object-nodes="true"
     inkscape:snap-bbox="true"
     inkscape:snap-global="false"
     inkscape:snap-intersection-paths="true"
     inkscape:object-paths="true"
     inkscape:snap-smooth-nodes="true"
     inkscape:snap-nodes="true"
     showguides="false"
     inkscape:guide-bbox="true" />
  <!-- Generator: Sketch 46.2 (44496) - http://www.bohemiancoding.com/sketch -->
  <title
     id="title2">prod_music</title>
  <desc
     id="desc4">Created with Sketch.</desc>
  <defs
     id="defs6" />
  <g
     style="fill:none;fill-rule:evenodd;stroke:none;stroke-width:1"
     id="prod_music"
     inkscape:label="prod_music">
    <polygon
       points="24,0 24,24 0,24 0,0 "
       id="Frame"
       inkscape:label="Frame" />
    <path
       inkscape:connector-curvature="0"
       id="Shape"
       d="m 11.99999,2.8270498 c -1.499631,0 -2.9994357,0.2596198 -4.4121278,0.7982796 C 6.2186378,4.1440368 4.9575582,4.9019786 3.8491379,5.919445 3.5665999,6.1787986 3.4364778,6.4985783 3.4364778,6.8377335 c 0,0.1995034 0.043249,0.3787072 0.1519189,0.55826 C 2.1759211,9.1448539 1.4360355,12.60603 1.3505499,15.22732 c -0.060136,2.185685 -0.095072,2.383933 2.1960217,2.751653 l 0.011851,1.686567 c 0,0.525632 0.7047771,0.849754 1.5159612,1.079017 v -7.406319 c -0.8158669,0.20837 -1.5087982,0.458885 -1.5159615,0.977223 v 1.865509 c -0.9364688,0 -1.1623519,0.29794 -1.1843058,-1.029727 0.018178,-2.350127 0.7568916,-5.5454028 2.0622245,-7.1166264 0.1521363,0.039901 0.304699,0.060005 0.4568353,0.060005 0.3477394,0 0.694886,-0.1202167 0.9556915,-0.3396703 l 0.044175,-0.039648 C 6.7189256,6.9571905 7.6750616,6.3784541 8.6965515,5.9794479 9.754727,5.5829787 10.877032,5.3851283 11.99999,5.3826127 c 1.122954,0.00252 2.24526,0.200366 3.303435,0.5968352 1.021485,0.3990062 1.977623,0.9777426 2.803504,1.7358551 l 0.04419,0.039648 c 0.260808,0.2194535 0.607951,0.3396702 0.955689,0.3396702 0.152141,0 0.304704,-0.020107 0.456838,-0.060005 1.305331,1.5712235 2.044075,4.7664998 2.062224,7.1166268 -0.02196,1.327667 -0.24784,1.029727 -1.184305,1.029727 v -1.865509 c -0.0072,-0.518338 -0.700093,-0.768853 -1.515962,-0.977223 v 7.406319 c 0.811184,-0.229263 1.515962,-0.553385 1.515962,-1.079017 l 0.01186,-1.686567 c 2.291098,-0.36772 2.256156,-0.565969 2.196027,-2.751653 -0.08549,-2.62129 -0.825375,-6.0824665 -2.237848,-7.8313268 0.108669,-0.1795523 0.15192,-0.3587567 0.15192,-0.55826 0,-0.3391553 -0.130124,-0.658935 -0.412662,-0.9182886 C 19.04244,4.9019786 17.781367,4.1440368 16.412137,3.6253294 14.999449,3.0866696 13.499639,2.8270498 12.000009,2.8270498 Z M 7.1366103,12.818553 c -0.094529,0.0021 -0.2035534,0.02161 -0.3286192,0.06429 -0.3380727,0.115382 -0.7235422,0.208233 -1.1108442,0.298953 v 7.720272 c 0.4475763,0.10023 0.8853325,0.181999 1.2175094,0.25502 0.4773432,0.104932 0.849025,-0.330359 0.849025,-0.72863 V 14.12473 c 0,-0.436414 0.034627,-1.320601 -0.627071,-1.306177 z m 9.7267557,0 c -0.661716,-0.01442 -0.627073,0.869765 -0.627073,1.306178 v 6.303728 c 0,0.398271 0.37168,0.833562 0.849024,0.72863 0.332175,-0.07302 0.769937,-0.15479 1.217514,-0.25502 v -7.720272 c -0.387297,-0.09072 -0.772774,-0.183571 -1.110847,-0.298953 -0.125065,-0.04269 -0.234093,-0.0622 -0.328618,-0.06429 z"
       style="fill:#0271d2;fill-opacity:1;stroke:none;stroke-width:0.05205736"
       inkscape:label="Shape"
       sodipodi:nodetypes="scssccccccccccscccccccsccccccccccsscssccccsssccsssccccc" />
  </g>
</svg>
