<?xml version="1.0" encoding="UTF-8" standalone="no"?>
<svg
   xmlns:dc="http://purl.org/dc/elements/1.1/"
   xmlns:cc="http://creativecommons.org/ns#"
   xmlns:rdf="http://www.w3.org/1999/02/22-rdf-syntax-ns#"
   xmlns:svg="http://www.w3.org/2000/svg"
   xmlns="http://www.w3.org/2000/svg"
   xmlns:sodipodi="http://sodipodi.sourceforge.net/DTD/sodipodi-0.dtd"
   xmlns:inkscape="http://www.inkscape.org/namespaces/inkscape"
   width="24"
   height="24"
   viewBox="0 0 24 24"
   version="1.1"
   id="svg15"
   sodipodi:docname="qrcode_black.svg"
   inkscape:version="0.92.3 (2405546, 2018-03-11)"
   inkscape:export-filename="C:\Users\ncara\source\repos\18App\Artworks\Svg\ToDo\icon-qrcode.png"
   inkscape:export-xdpi="378"
   inkscape:export-ydpi="378">
  <metadata
     id="metadata19">
    <rdf:RDF>
      <cc:Work
         rdf:about="">
        <dc:format>image/svg+xml</dc:format>
        <dc:type
           rdf:resource="http://purl.org/dc/dcmitype/StillImage" />
        <dc:title>qrcode_black</dc:title>
      </cc:Work>
    </rdf:RDF>
  </metadata>
  <sodipodi:namedview
     pagecolor="#ffffff"
     bordercolor="#666666"
     borderopacity="1"
     objecttolerance="10"
     gridtolerance="10"
     guidetolerance="10"
     inkscape:pageopacity="0"
     inkscape:pageshadow="2"
     inkscape:window-width="1534"
     inkscape:window-height="1201"
     id="namedview17"
     showgrid="false"
     fit-margin-top="0"
     fit-margin-left="0"
     fit-margin-right="0"
     fit-margin-bottom="0"
     inkscape:zoom="11.8"
     inkscape:cx="-3.8050847"
     inkscape:cy="12"
     inkscape:window-x="704"
     inkscape:window-y="97"
     inkscape:window-maximized="0"
     inkscape:current-layer="svg15" />
  <!-- Generator: Sketch 46.2 (44496) - http://www.bohemiancoding.com/sketch -->
  <title
     id="title2">qrcode_black</title>
  <desc
     id="desc4">Created with Sketch.</desc>
  <defs
     id="defs6" />
  <g
     style="fill:none;fill-rule:evenodd;stroke:none;stroke-width:1"
     id="qrcode_black"
     inkscape:label="qrcode_black"
     inkscape:export-filename="C:\Users\ncara\Desktop\fucina\qrcode_black.png"
     inkscape:export-xdpi="376"
     inkscape:export-ydpi="376">
    <rect
       style="fill:none;fill-rule:evenodd;stroke:none;stroke-width:1"
       id="Frame"
       x="0"
       y="1.7763568e-014"
       width="24"
       height="24"
       inkscape:label="Frame" />
    <path
       style="fill:#30373d"
       inkscape:connector-curvature="0"
       id="Shape"
       d="M 4,2 C 2.9,2 2,2.9 2,4 v 6 h 4 v 2 h 2 v -2 h 2 V 2 Z m 6,8 v 2 H 8 v 2 H 6 V 12 H 4 v 2 H 2 v 6 c 0,1.1 0.9,2 2,2 h 6 2 v -2 h -2 v -2 h 2 v 2 h 2 v -2 h 2 v -2 h 4 v -2 h 2 v -2 h -2 -2 v 2 h -2 v -2 h -1 -1 v -2 h -2 z m 4,0 h 2 v 2 h 2 v -2 h 4 V 4 C 22,2.9 21.1,2 20,2 h -6 z m 6,6 v 2 h 2 v -2 z m 0,2 h -2 v 2 h 2 z m 0,2 v 2 c 1.1,0 2,-0.9 2,-2 z m -2,0 h -2 v 2 h 2 z M 4,4 H 8 V 8 H 4 Z m 12,0 h 4 V 8 H 16 Z M 5,5 V 7 H 7 V 5 Z m 12,0 v 2 h 2 V 5 Z m -7,9 h 2 v 2 h -2 z m -6,2 h 4 v 4 H 4 Z m 1,1 v 2 h 2 v -2 z"
       inkscape:label="Shape" />
  </g>
</svg>
