<?xml version="1.0" encoding="UTF-8" standalone="no"?>
<svg
   xmlns:dc="http://purl.org/dc/elements/1.1/"
   xmlns:cc="http://creativecommons.org/ns#"
   xmlns:rdf="http://www.w3.org/1999/02/22-rdf-syntax-ns#"
   xmlns:svg="http://www.w3.org/2000/svg"
   xmlns="http://www.w3.org/2000/svg"
   xmlns:sodipodi="http://sodipodi.sourceforge.net/DTD/sodipodi-0.dtd"
   xmlns:inkscape="http://www.inkscape.org/namespaces/inkscape"
   width="24"
   height="24"
   viewBox="0 0 24 24"
   version="1.1"
   id="svg19"
   sodipodi:docname="usericon.svg"
   inkscape:export-filename="C:\Users\ncara\source\repos\18App\Artworks\Svg\usericon.png"
   inkscape:export-xdpi="384"
   inkscape:export-ydpi="384"
   inkscape:version="0.92.3 (2405546, 2018-03-11)">
  <metadata
     id="metadata23">
    <rdf:RDF>
      <cc:Work
         rdf:about="">
        <dc:format>image/svg+xml</dc:format>
        <dc:type
           rdf:resource="http://purl.org/dc/dcmitype/StillImage" />
        <dc:title>icon-profilo</dc:title>
      </cc:Work>
    </rdf:RDF>
  </metadata>
  <sodipodi:namedview
     pagecolor="#ffffff"
     bordercolor="#666666"
     borderopacity="1"
     objecttolerance="10"
     gridtolerance="10"
     guidetolerance="10"
     inkscape:pageopacity="0"
     inkscape:pageshadow="2"
     inkscape:window-width="2880"
     inkscape:window-height="1695"
     id="namedview21"
     showgrid="false"
     inkscape:zoom="9.8333333"
     inkscape:cx="6.8644068"
     inkscape:cy="12"
     inkscape:window-x="-13"
     inkscape:window-y="-13"
     inkscape:window-maximized="1"
     inkscape:current-layer="svg19"
     fit-margin-top="0"
     fit-margin-left="0"
     fit-margin-right="0"
     fit-margin-bottom="0" />
  <!-- Generator: Sketch 46.2 (44496) - http://www.bohemiancoding.com/sketch -->
  <title
     id="title2">usericon</title>
  <desc
     id="desc4">Created with Sketch.</desc>
  <defs
     id="defs6" />
  <g
     id="usericon"
     style="fill:none;fill-rule:evenodd;stroke:none;stroke-width:1">
    <rect
       id="Frame"
       width="24"
       height="24"
       x="0"
       y="0"
       style="fill:none;stroke-width:0.34287262;fill-opacity:1" />
    <g
       id="Shape">
      <path
         style="stroke:#ffffff"
         d="M 23.5,12 A 11.5,11.5 0 0 1 12,23.5 11.5,11.5 0 0 1 0.5,12 11.5,11.5 0 0 1 12,0.5 11.5,11.5 0 0 1 23.5,12 Z"
         id="Oval-3"
         inkscape:connector-curvature="0" />
      <path
         d="M 9.1394231,11.843149 C 8.3798077,11.073469 8,10.117201 8,8.9790088 8,7.8361516 8.3798077,6.8892128 9.1346154,6.1335277 9.8894231,5.3778426 10.850962,5 12.028846,5 13.201923,5 14.158654,5.3825073 14.894231,6.161516 15.629808,6.9358601 16,7.8874636 16,9.0303207 16,10.163848 15.629808,11.110787 14.894231,11.866472 14.158654,12.617493 13.211539,13 12.038462,13 10.865385,13 9.8990385,12.617493 9.1394231,11.843149 Z"
         id="XMLID_2_"
         inkscape:connector-curvature="0"
         style="fill:#ffffff" />
      <path
         d="M 8,17.949074 C 8,16.814815 8.3798077,15.875 9.1298077,15.125 9.8846154,14.375 10.846154,14 12.033654,14 c 1.173077,0 2.129808,0.37963 2.860577,1.152778 C 15.629808,15.925926 16,16.87037 16,18"
         id="XMLID_1_"
         inkscape:connector-curvature="0"
         style="fill:#ffffff" />
    </g>
  </g>
</svg>
