<?xml version="1.0" encoding="UTF-8" standalone="no"?>
<svg
   xmlns:dc="http://purl.org/dc/elements/1.1/"
   xmlns:cc="http://creativecommons.org/ns#"
   xmlns:rdf="http://www.w3.org/1999/02/22-rdf-syntax-ns#"
   xmlns:svg="http://www.w3.org/2000/svg"
   xmlns="http://www.w3.org/2000/svg"
   xmlns:sodipodi="http://sodipodi.sourceforge.net/DTD/sodipodi-0.dtd"
   xmlns:inkscape="http://www.inkscape.org/namespaces/inkscape"
   width="24px"
   height="24px"
   viewBox="0 0 24 24"
   version="1.1"
   id="svg19"
   sodipodi:docname="usericon.svg"
   inkscape:export-filename="C:\Users\ncara\source\repos\18App\Artworks\Svg\usericon.png"
   inkscape:export-xdpi="384"
   inkscape:export-ydpi="384"
   inkscape:version="0.92.3 (2405546, 2018-03-11)">
  <metadata
     id="metadata23">
    <rdf:RDF>
      <cc:Work
         rdf:about="">
        <dc:format>image/svg+xml</dc:format>
        <dc:type
           rdf:resource="http://purl.org/dc/dcmitype/StillImage" />
        <dc:title>icon-profilo</dc:title>
      </cc:Work>
    </rdf:RDF>
  </metadata>
  <sodipodi:namedview
     pagecolor="#ffffff"
     bordercolor="#666666"
     borderopacity="1"
     objecttolerance="10"
     gridtolerance="10"
     guidetolerance="10"
     inkscape:pageopacity="0"
     inkscape:pageshadow="2"
     inkscape:window-width="3991"
     inkscape:window-height="2694"
     id="namedview21"
     showgrid="false"
     inkscape:zoom="9.8333333"
     inkscape:cx="-13.881356"
     inkscape:cy="12"
     inkscape:window-x="0"
     inkscape:window-y="0"
     inkscape:window-maximized="0"
     inkscape:current-layer="svg19" />
  <!-- Generator: Sketch 46.2 (44496) - http://www.bohemiancoding.com/sketch -->
  <title
     id="title2">icon-profilo</title>
  <desc
     id="desc4">Created with Sketch.</desc>
  <defs
     id="defs6" />
  <g
     id="-prototype-v0.1"
     stroke="none"
     stroke-width="1"
     fill="none"
     fill-rule="evenodd">
    <g
       id="user-menu"
       transform="translate(-60.000000, -144.000000)">
      <g
         id="Group-17"
         transform="translate(48.000000, 132.000000)">
        <g
           id="icon-profilo">
          <g
             id="Group-7">
            <rect
               id="Rectangle-5"
               x="0"
               y="0"
               width="48"
               height="48" />
          </g>
          <g
             id="spid-ico-circle-bb"
             transform="translate(12.000000, 12.000000)">
            <g
               id="Layer_1">
              <circle
                 id="Oval-3"
                 stroke="#FFFFFF"
                 cx="12"
                 cy="12"
                 r="11.5" />
              <path
                 d="M9.13942308,11.8431487 C8.37980769,11.0734694 8,10.1172012 8,8.97900875 C8,7.8361516 8.37980769,6.88921283 9.13461538,6.1335277 C9.88942308,5.37784257 10.8509615,5 12.0288462,5 C13.2019231,5 14.1586538,5.38250729 14.8942308,6.16151603 C15.6298077,6.93586006 16,7.88746356 16,9.0303207 C16,10.1638484 15.6298077,11.1107872 14.8942308,11.8664723 C14.1586538,12.6174927 13.2115385,13 12.0384615,13 C10.8653846,13 9.89903846,12.6174927 9.13942308,11.8431487 Z"
                 id="XMLID_2_"
                 fill="#FFFFFF" />
              <path
                 d="M8,17.9490741 C8,16.8148148 8.37980769,15.875 9.12980769,15.125 C9.88461538,14.375 10.8461538,14 12.0336538,14 C13.2067308,14 14.1634615,14.3796296 14.8942308,15.1527778 C15.6298077,15.9259259 16,16.8703704 16,18"
                 id="XMLID_1_"
                 fill="#FFFFFF" />
            </g>
          </g>
        </g>
      </g>
    </g>
  </g>
</svg>
